G04 #@! TF.GenerationSoftware,KiCad,Pcbnew,9.0.1*
G04 #@! TF.CreationDate,2025-09-16T21:45:55+03:00*
G04 #@! TF.ProjectId,v1,76312e6b-6963-4616-945f-706362585858,rev?*
G04 #@! TF.SameCoordinates,Original*
G04 #@! TF.FileFunction,Copper,L2,Bot*
G04 #@! TF.FilePolarity,Positive*
%FSLAX46Y46*%
G04 Gerber Fmt 4.6, Leading zero omitted, Abs format (unit mm)*
G04 Created by KiCad (PCBNEW 9.0.1) date 2025-09-16 21:45:55*
%MOMM*%
%LPD*%
G01*
G04 APERTURE LIST*
G04 Aperture macros list*
%AMRoundRect*
0 Rectangle with rounded corners*
0 $1 Rounding radius*
0 $2 $3 $4 $5 $6 $7 $8 $9 X,Y pos of 4 corners*
0 Add a 4 corners polygon primitive as box body*
4,1,4,$2,$3,$4,$5,$6,$7,$8,$9,$2,$3,0*
0 Add four circle primitives for the rounded corners*
1,1,$1+$1,$2,$3*
1,1,$1+$1,$4,$5*
1,1,$1+$1,$6,$7*
1,1,$1+$1,$8,$9*
0 Add four rect primitives between the rounded corners*
20,1,$1+$1,$2,$3,$4,$5,0*
20,1,$1+$1,$4,$5,$6,$7,0*
20,1,$1+$1,$6,$7,$8,$9,0*
20,1,$1+$1,$8,$9,$2,$3,0*%
G04 Aperture macros list end*
G04 #@! TA.AperFunction,NonConductor*
%ADD10C,0.400000*%
G04 #@! TD*
G04 #@! TA.AperFunction,NonConductor*
%ADD11C,0.200000*%
G04 #@! TD*
G04 #@! TA.AperFunction,NonConductor*
%ADD12C,0.300000*%
G04 #@! TD*
G04 #@! TA.AperFunction,Conductor*
%ADD13C,0.200000*%
G04 #@! TD*
G04 #@! TA.AperFunction,NonConductor*
%ADD14C,0.100000*%
G04 #@! TD*
G04 #@! TA.AperFunction,SMDPad,CuDef*
%ADD15RoundRect,0.200000X0.200000X-0.750000X0.200000X0.750000X-0.200000X0.750000X-0.200000X-0.750000X0*%
G04 #@! TD*
G04 #@! TA.AperFunction,SMDPad,CuDef*
%ADD16R,2.000000X2.000000*%
G04 #@! TD*
G04 #@! TA.AperFunction,SMDPad,CuDef*
%ADD17RoundRect,0.250000X0.450000X-0.262500X0.450000X0.262500X-0.450000X0.262500X-0.450000X-0.262500X0*%
G04 #@! TD*
G04 #@! TA.AperFunction,SMDPad,CuDef*
%ADD18RoundRect,0.250000X0.625000X-0.312500X0.625000X0.312500X-0.625000X0.312500X-0.625000X-0.312500X0*%
G04 #@! TD*
G04 #@! TA.AperFunction,ComponentPad*
%ADD19RoundRect,0.323530X0.776470X0.776470X-0.776470X0.776470X-0.776470X-0.776470X0.776470X-0.776470X0*%
G04 #@! TD*
G04 #@! TA.AperFunction,ComponentPad*
%ADD20RoundRect,0.323529X0.776471X0.776471X-0.776471X0.776471X-0.776471X-0.776471X0.776471X-0.776471X0*%
G04 #@! TD*
G04 #@! TA.AperFunction,ComponentPad*
%ADD21RoundRect,0.275000X0.825000X0.825000X-0.825000X0.825000X-0.825000X-0.825000X0.825000X-0.825000X0*%
G04 #@! TD*
G04 #@! TA.AperFunction,SMDPad,CuDef*
%ADD22C,2.500000*%
G04 #@! TD*
G04 #@! TA.AperFunction,ComponentPad*
%ADD23RoundRect,0.250000X1.250000X-1.250000X1.250000X1.250000X-1.250000X1.250000X-1.250000X-1.250000X0*%
G04 #@! TD*
G04 #@! TA.AperFunction,ComponentPad*
%ADD24O,1.600000X2.300000*%
G04 #@! TD*
G04 #@! TA.AperFunction,ComponentPad*
%ADD25RoundRect,0.208333X1.041667X-1.291667X1.041667X1.291667X-1.041667X1.291667X-1.041667X-1.291667X0*%
G04 #@! TD*
G04 #@! TA.AperFunction,ComponentPad*
%ADD26RoundRect,0.390625X0.859375X-1.109375X0.859375X1.109375X-0.859375X1.109375X-0.859375X-1.109375X0*%
G04 #@! TD*
G04 #@! TA.AperFunction,SMDPad,CuDef*
%ADD27RoundRect,0.250000X-0.350000X0.850000X-0.350000X-0.850000X0.350000X-0.850000X0.350000X0.850000X0*%
G04 #@! TD*
G04 #@! TA.AperFunction,SMDPad,CuDef*
%ADD28RoundRect,0.249997X-2.650003X2.950003X-2.650003X-2.950003X2.650003X-2.950003X2.650003X2.950003X0*%
G04 #@! TD*
G04 #@! TA.AperFunction,SMDPad,CuDef*
%ADD29RoundRect,0.250000X-0.850000X-0.350000X0.850000X-0.350000X0.850000X0.350000X-0.850000X0.350000X0*%
G04 #@! TD*
G04 #@! TA.AperFunction,SMDPad,CuDef*
%ADD30RoundRect,0.249997X-2.950003X-2.650003X2.950003X-2.650003X2.950003X2.650003X-2.950003X2.650003X0*%
G04 #@! TD*
G04 #@! TA.AperFunction,SMDPad,CuDef*
%ADD31RoundRect,0.250000X0.350000X-0.850000X0.350000X0.850000X-0.350000X0.850000X-0.350000X-0.850000X0*%
G04 #@! TD*
G04 #@! TA.AperFunction,SMDPad,CuDef*
%ADD32RoundRect,0.249997X2.650003X-2.950003X2.650003X2.950003X-2.650003X2.950003X-2.650003X-2.950003X0*%
G04 #@! TD*
G04 #@! TA.AperFunction,ComponentPad*
%ADD33RoundRect,0.441000X-1.059000X-1.059000X1.059000X-1.059000X1.059000X1.059000X-1.059000X1.059000X0*%
G04 #@! TD*
G04 #@! TA.AperFunction,ComponentPad*
%ADD34C,3.000000*%
G04 #@! TD*
G04 #@! TA.AperFunction,SMDPad,CuDef*
%ADD35RoundRect,0.250000X-0.400000X-0.625000X0.400000X-0.625000X0.400000X0.625000X-0.400000X0.625000X0*%
G04 #@! TD*
G04 #@! TA.AperFunction,SMDPad,CuDef*
%ADD36C,3.000000*%
G04 #@! TD*
G04 #@! TA.AperFunction,SMDPad,CuDef*
%ADD37RoundRect,0.150000X0.512500X0.150000X-0.512500X0.150000X-0.512500X-0.150000X0.512500X-0.150000X0*%
G04 #@! TD*
G04 #@! TA.AperFunction,SMDPad,CuDef*
%ADD38C,2.000000*%
G04 #@! TD*
G04 #@! TA.AperFunction,SMDPad,CuDef*
%ADD39RoundRect,0.250000X-0.650000X0.325000X-0.650000X-0.325000X0.650000X-0.325000X0.650000X0.325000X0*%
G04 #@! TD*
G04 #@! TA.AperFunction,SMDPad,CuDef*
%ADD40RoundRect,0.250000X0.400000X0.625000X-0.400000X0.625000X-0.400000X-0.625000X0.400000X-0.625000X0*%
G04 #@! TD*
G04 #@! TA.AperFunction,SMDPad,CuDef*
%ADD41RoundRect,0.250000X0.625000X-0.400000X0.625000X0.400000X-0.625000X0.400000X-0.625000X-0.400000X0*%
G04 #@! TD*
G04 #@! TA.AperFunction,SMDPad,CuDef*
%ADD42RoundRect,0.250000X0.312500X0.625000X-0.312500X0.625000X-0.312500X-0.625000X0.312500X-0.625000X0*%
G04 #@! TD*
G04 #@! TA.AperFunction,SMDPad,CuDef*
%ADD43RoundRect,0.150000X-0.150000X0.512500X-0.150000X-0.512500X0.150000X-0.512500X0.150000X0.512500X0*%
G04 #@! TD*
G04 #@! TA.AperFunction,SMDPad,CuDef*
%ADD44RoundRect,0.250000X-0.312500X-0.625000X0.312500X-0.625000X0.312500X0.625000X-0.312500X0.625000X0*%
G04 #@! TD*
G04 #@! TA.AperFunction,SMDPad,CuDef*
%ADD45RoundRect,0.225000X0.225000X0.375000X-0.225000X0.375000X-0.225000X-0.375000X0.225000X-0.375000X0*%
G04 #@! TD*
G04 #@! TA.AperFunction,SMDPad,CuDef*
%ADD46RoundRect,0.150000X0.150000X-0.512500X0.150000X0.512500X-0.150000X0.512500X-0.150000X-0.512500X0*%
G04 #@! TD*
G04 #@! TA.AperFunction,SMDPad,CuDef*
%ADD47RoundRect,0.312500X2.187500X0.937500X-2.187500X0.937500X-2.187500X-0.937500X2.187500X-0.937500X0*%
G04 #@! TD*
G04 #@! TA.AperFunction,SMDPad,CuDef*
%ADD48RoundRect,0.250000X-0.625000X0.400000X-0.625000X-0.400000X0.625000X-0.400000X0.625000X0.400000X0*%
G04 #@! TD*
G04 #@! TA.AperFunction,SMDPad,CuDef*
%ADD49RoundRect,0.250000X0.262500X0.450000X-0.262500X0.450000X-0.262500X-0.450000X0.262500X-0.450000X0*%
G04 #@! TD*
G04 #@! TA.AperFunction,SMDPad,CuDef*
%ADD50RoundRect,0.250000X-0.262500X-0.450000X0.262500X-0.450000X0.262500X0.450000X-0.262500X0.450000X0*%
G04 #@! TD*
G04 #@! TA.AperFunction,SMDPad,CuDef*
%ADD51RoundRect,0.375000X-0.625000X-0.375000X0.625000X-0.375000X0.625000X0.375000X-0.625000X0.375000X0*%
G04 #@! TD*
G04 #@! TA.AperFunction,SMDPad,CuDef*
%ADD52RoundRect,0.500000X-0.500000X-1.400000X0.500000X-1.400000X0.500000X1.400000X-0.500000X1.400000X0*%
G04 #@! TD*
G04 #@! TA.AperFunction,SMDPad,CuDef*
%ADD53RoundRect,0.250000X0.325000X0.650000X-0.325000X0.650000X-0.325000X-0.650000X0.325000X-0.650000X0*%
G04 #@! TD*
G04 #@! TA.AperFunction,SMDPad,CuDef*
%ADD54RoundRect,0.250000X-0.325000X-0.650000X0.325000X-0.650000X0.325000X0.650000X-0.325000X0.650000X0*%
G04 #@! TD*
G04 #@! TA.AperFunction,ViaPad*
%ADD55C,1.500000*%
G04 #@! TD*
G04 #@! TA.AperFunction,ViaPad*
%ADD56C,1.600000*%
G04 #@! TD*
G04 #@! TA.AperFunction,ViaPad*
%ADD57C,2.800000*%
G04 #@! TD*
G04 #@! TA.AperFunction,ViaPad*
%ADD58C,0.600000*%
G04 #@! TD*
G04 #@! TA.AperFunction,Conductor*
%ADD59C,0.400000*%
G04 #@! TD*
G04 #@! TA.AperFunction,Conductor*
%ADD60C,0.250000*%
G04 #@! TD*
G04 #@! TA.AperFunction,Conductor*
%ADD61C,0.500000*%
G04 #@! TD*
G04 #@! TA.AperFunction,Conductor*
%ADD62C,1.300000*%
G04 #@! TD*
G04 #@! TA.AperFunction,Conductor*
%ADD63C,0.800000*%
G04 #@! TD*
G04 #@! TA.AperFunction,Conductor*
%ADD64C,1.000000*%
G04 #@! TD*
G04 #@! TA.AperFunction,Conductor*
%ADD65C,2.000000*%
G04 #@! TD*
G04 APERTURE END LIST*
D10*
X174909000Y-86677500D02*
X171196000Y-86677500D01*
D11*
X173545500Y-81661000D02*
X172656500Y-81661000D01*
X172656500Y-82804000D01*
X173545500Y-82804000D01*
X173545500Y-81661000D01*
G04 #@! TA.AperFunction,NonConductor*
G36*
X173545500Y-81661000D02*
G01*
X172656500Y-81661000D01*
X172656500Y-82804000D01*
X173545500Y-82804000D01*
X173545500Y-81661000D01*
G37*
G04 #@! TD.AperFunction*
X169608500Y-85026500D02*
X168465500Y-85026500D01*
X168465500Y-85915500D01*
X169608500Y-85915500D01*
X169608500Y-85026500D01*
G04 #@! TA.AperFunction,NonConductor*
G36*
X169608500Y-85026500D02*
G01*
X168465500Y-85026500D01*
X168465500Y-85915500D01*
X169608500Y-85915500D01*
X169608500Y-85026500D01*
G37*
G04 #@! TD.AperFunction*
D10*
X174909000Y-83502500D02*
X171577000Y-83502500D01*
X174909000Y-85407500D02*
X171196000Y-85407500D01*
X174909000Y-84137500D02*
X171450000Y-84137500D01*
X174909000Y-88582500D02*
X171196000Y-88582500D01*
X174909000Y-84772500D02*
X171323000Y-84772500D01*
D11*
X170688000Y-81724500D02*
X169799000Y-81724500D01*
X169799000Y-82867500D01*
X170688000Y-82867500D01*
X170688000Y-81724500D01*
G04 #@! TA.AperFunction,NonConductor*
G36*
X170688000Y-81724500D02*
G01*
X169799000Y-81724500D01*
X169799000Y-82867500D01*
X170688000Y-82867500D01*
X170688000Y-81724500D01*
G37*
G04 #@! TD.AperFunction*
D10*
X174909000Y-89217500D02*
X171577000Y-89217500D01*
X174909000Y-86042500D02*
X171196000Y-86042500D01*
D11*
X169608500Y-86550500D02*
X168465500Y-86550500D01*
X168465500Y-87439500D01*
X169608500Y-87439500D01*
X169608500Y-86550500D01*
G04 #@! TA.AperFunction,NonConductor*
G36*
X169608500Y-86550500D02*
G01*
X168465500Y-86550500D01*
X168465500Y-87439500D01*
X169608500Y-87439500D01*
X169608500Y-86550500D01*
G37*
G04 #@! TD.AperFunction*
X172085000Y-81724500D02*
X171196000Y-81724500D01*
X171196000Y-82867500D01*
X172085000Y-82867500D01*
X172085000Y-81724500D01*
G04 #@! TA.AperFunction,NonConductor*
G36*
X172085000Y-81724500D02*
G01*
X171196000Y-81724500D01*
X171196000Y-82867500D01*
X172085000Y-82867500D01*
X172085000Y-81724500D01*
G37*
G04 #@! TD.AperFunction*
D10*
X174909000Y-87947500D02*
X171196000Y-87947500D01*
D11*
X170688000Y-89598500D02*
X169799000Y-89598500D01*
X169799000Y-90741500D01*
X170688000Y-90741500D01*
X170688000Y-89598500D01*
G04 #@! TA.AperFunction,NonConductor*
G36*
X170688000Y-89598500D02*
G01*
X169799000Y-89598500D01*
X169799000Y-90741500D01*
X170688000Y-90741500D01*
X170688000Y-89598500D01*
G37*
G04 #@! TD.AperFunction*
X170053000Y-83439000D02*
X168910000Y-83439000D01*
X168910000Y-84328000D01*
X170053000Y-84328000D01*
X170053000Y-83439000D01*
G04 #@! TA.AperFunction,NonConductor*
G36*
X170053000Y-83439000D02*
G01*
X168910000Y-83439000D01*
X168910000Y-84328000D01*
X170053000Y-84328000D01*
X170053000Y-83439000D01*
G37*
G04 #@! TD.AperFunction*
D10*
X174909000Y-87312500D02*
X171196000Y-87312500D01*
D11*
X172085000Y-89725500D02*
X171196000Y-89725500D01*
X171196000Y-90868500D01*
X172085000Y-90868500D01*
X172085000Y-89725500D01*
G04 #@! TA.AperFunction,NonConductor*
G36*
X172085000Y-89725500D02*
G01*
X171196000Y-89725500D01*
X171196000Y-90868500D01*
X172085000Y-90868500D01*
X172085000Y-89725500D01*
G37*
G04 #@! TD.AperFunction*
X173545500Y-89725500D02*
X172656500Y-89725500D01*
X172656500Y-90868500D01*
X173545500Y-90868500D01*
X173545500Y-89725500D01*
G04 #@! TA.AperFunction,NonConductor*
G36*
X173545500Y-89725500D02*
G01*
X172656500Y-89725500D01*
X172656500Y-90868500D01*
X173545500Y-90868500D01*
X173545500Y-89725500D01*
G37*
G04 #@! TD.AperFunction*
X170053000Y-88074500D02*
X168910000Y-88074500D01*
X168910000Y-88963500D01*
X170053000Y-88963500D01*
X170053000Y-88074500D01*
G04 #@! TA.AperFunction,NonConductor*
G36*
X170053000Y-88074500D02*
G01*
X168910000Y-88074500D01*
X168910000Y-88963500D01*
X170053000Y-88963500D01*
X170053000Y-88074500D01*
G37*
G04 #@! TD.AperFunction*
D12*
X175078150Y-74066400D02*
X171631850Y-74066400D01*
X175078150Y-77622400D02*
X171631850Y-77622400D01*
X175078150Y-75590400D02*
X171631850Y-75590400D01*
D11*
X173600350Y-71653400D02*
X172711350Y-71653400D01*
X172711350Y-72796400D01*
X173600350Y-72796400D01*
X173600350Y-71653400D01*
G04 #@! TA.AperFunction,NonConductor*
G36*
X173600350Y-71653400D02*
G01*
X172711350Y-71653400D01*
X172711350Y-72796400D01*
X173600350Y-72796400D01*
X173600350Y-71653400D01*
G37*
G04 #@! TD.AperFunction*
D12*
X175078150Y-74574400D02*
X171631850Y-74574400D01*
D11*
X170107850Y-77368400D02*
X168964850Y-77368400D01*
X168964850Y-78257400D01*
X170107850Y-78257400D01*
X170107850Y-77368400D01*
G04 #@! TA.AperFunction,NonConductor*
G36*
X170107850Y-77368400D02*
G01*
X168964850Y-77368400D01*
X168964850Y-78257400D01*
X170107850Y-78257400D01*
X170107850Y-77368400D01*
G37*
G04 #@! TD.AperFunction*
D12*
X175078150Y-76606400D02*
X171631850Y-76606400D01*
D11*
X172139850Y-78638400D02*
X171250850Y-78638400D01*
X171250850Y-79781400D01*
X172139850Y-79781400D01*
X172139850Y-78638400D01*
G04 #@! TA.AperFunction,NonConductor*
G36*
X172139850Y-78638400D02*
G01*
X171250850Y-78638400D01*
X171250850Y-79781400D01*
X172139850Y-79781400D01*
X172139850Y-78638400D01*
G37*
G04 #@! TD.AperFunction*
D12*
X175078150Y-76098400D02*
X171631850Y-76098400D01*
X175078150Y-73558400D02*
X171631850Y-73558400D01*
D11*
X169536350Y-74574400D02*
X168393350Y-74574400D01*
X168393350Y-75463400D01*
X169536350Y-75463400D01*
X169536350Y-74574400D01*
G04 #@! TA.AperFunction,NonConductor*
G36*
X169536350Y-74574400D02*
G01*
X168393350Y-74574400D01*
X168393350Y-75463400D01*
X169536350Y-75463400D01*
X169536350Y-74574400D01*
G37*
G04 #@! TD.AperFunction*
D12*
X175078150Y-78130400D02*
X171631850Y-78130400D01*
D11*
X170742850Y-78638400D02*
X169853850Y-78638400D01*
X169853850Y-79781400D01*
X170742850Y-79781400D01*
X170742850Y-78638400D01*
G04 #@! TA.AperFunction,NonConductor*
G36*
X170742850Y-78638400D02*
G01*
X169853850Y-78638400D01*
X169853850Y-79781400D01*
X170742850Y-79781400D01*
X170742850Y-78638400D01*
G37*
G04 #@! TD.AperFunction*
X169536350Y-75971400D02*
X168393350Y-75971400D01*
X168393350Y-76860400D01*
X169536350Y-76860400D01*
X169536350Y-75971400D01*
G04 #@! TA.AperFunction,NonConductor*
G36*
X169536350Y-75971400D02*
G01*
X168393350Y-75971400D01*
X168393350Y-76860400D01*
X169536350Y-76860400D01*
X169536350Y-75971400D01*
G37*
G04 #@! TD.AperFunction*
X170107850Y-73113900D02*
X168964850Y-73113900D01*
X168964850Y-74002900D01*
X170107850Y-74002900D01*
X170107850Y-73113900D01*
G04 #@! TA.AperFunction,NonConductor*
G36*
X170107850Y-73113900D02*
G01*
X168964850Y-73113900D01*
X168964850Y-74002900D01*
X170107850Y-74002900D01*
X170107850Y-73113900D01*
G37*
G04 #@! TD.AperFunction*
D12*
X175078150Y-77114400D02*
X171631850Y-77114400D01*
D11*
X172139850Y-71653400D02*
X171250850Y-71653400D01*
X171250850Y-72796400D01*
X172139850Y-72796400D01*
X172139850Y-71653400D01*
G04 #@! TA.AperFunction,NonConductor*
G36*
X172139850Y-71653400D02*
G01*
X171250850Y-71653400D01*
X171250850Y-72796400D01*
X172139850Y-72796400D01*
X172139850Y-71653400D01*
G37*
G04 #@! TD.AperFunction*
X173600350Y-78638400D02*
X172711350Y-78638400D01*
X172711350Y-79781400D01*
X173600350Y-79781400D01*
X173600350Y-78638400D01*
G04 #@! TA.AperFunction,NonConductor*
G36*
X173600350Y-78638400D02*
G01*
X172711350Y-78638400D01*
X172711350Y-79781400D01*
X173600350Y-79781400D01*
X173600350Y-78638400D01*
G37*
G04 #@! TD.AperFunction*
X170742850Y-71653400D02*
X169853850Y-71653400D01*
X169853850Y-72796400D01*
X170742850Y-72796400D01*
X170742850Y-71653400D01*
G04 #@! TA.AperFunction,NonConductor*
G36*
X170742850Y-71653400D02*
G01*
X169853850Y-71653400D01*
X169853850Y-72796400D01*
X170742850Y-72796400D01*
X170742850Y-71653400D01*
G37*
G04 #@! TD.AperFunction*
D12*
X175078150Y-75082400D02*
X171631850Y-75082400D01*
X176385700Y-73545700D02*
X179832000Y-73545700D01*
X176385700Y-75069700D02*
X179832000Y-75069700D01*
D11*
X180721000Y-71640700D02*
X181610000Y-71640700D01*
X181610000Y-72783700D01*
X180721000Y-72783700D01*
X180721000Y-71640700D01*
G04 #@! TA.AperFunction,NonConductor*
G36*
X180721000Y-71640700D02*
G01*
X181610000Y-71640700D01*
X181610000Y-72783700D01*
X180721000Y-72783700D01*
X180721000Y-71640700D01*
G37*
G04 #@! TD.AperFunction*
X177863500Y-78625700D02*
X178752500Y-78625700D01*
X178752500Y-79768700D01*
X177863500Y-79768700D01*
X177863500Y-78625700D01*
G04 #@! TA.AperFunction,NonConductor*
G36*
X177863500Y-78625700D02*
G01*
X178752500Y-78625700D01*
X178752500Y-79768700D01*
X177863500Y-79768700D01*
X177863500Y-78625700D01*
G37*
G04 #@! TD.AperFunction*
X179324000Y-71640700D02*
X180213000Y-71640700D01*
X180213000Y-72783700D01*
X179324000Y-72783700D01*
X179324000Y-71640700D01*
G04 #@! TA.AperFunction,NonConductor*
G36*
X179324000Y-71640700D02*
G01*
X180213000Y-71640700D01*
X180213000Y-72783700D01*
X179324000Y-72783700D01*
X179324000Y-71640700D01*
G37*
G04 #@! TD.AperFunction*
D12*
X176385700Y-77101700D02*
X179832000Y-77101700D01*
D11*
X181356000Y-73101200D02*
X182499000Y-73101200D01*
X182499000Y-73990200D01*
X181356000Y-73990200D01*
X181356000Y-73101200D01*
G04 #@! TA.AperFunction,NonConductor*
G36*
X181356000Y-73101200D02*
G01*
X182499000Y-73101200D01*
X182499000Y-73990200D01*
X181356000Y-73990200D01*
X181356000Y-73101200D01*
G37*
G04 #@! TD.AperFunction*
X181927500Y-75958700D02*
X183070500Y-75958700D01*
X183070500Y-76847700D01*
X181927500Y-76847700D01*
X181927500Y-75958700D01*
G04 #@! TA.AperFunction,NonConductor*
G36*
X181927500Y-75958700D02*
G01*
X183070500Y-75958700D01*
X183070500Y-76847700D01*
X181927500Y-76847700D01*
X181927500Y-75958700D01*
G37*
G04 #@! TD.AperFunction*
X180721000Y-78625700D02*
X181610000Y-78625700D01*
X181610000Y-79768700D01*
X180721000Y-79768700D01*
X180721000Y-78625700D01*
G04 #@! TA.AperFunction,NonConductor*
G36*
X180721000Y-78625700D02*
G01*
X181610000Y-78625700D01*
X181610000Y-79768700D01*
X180721000Y-79768700D01*
X180721000Y-78625700D01*
G37*
G04 #@! TD.AperFunction*
D12*
X176385700Y-78117700D02*
X179832000Y-78117700D01*
D11*
X181927500Y-74561700D02*
X183070500Y-74561700D01*
X183070500Y-75450700D01*
X181927500Y-75450700D01*
X181927500Y-74561700D01*
G04 #@! TA.AperFunction,NonConductor*
G36*
X181927500Y-74561700D02*
G01*
X183070500Y-74561700D01*
X183070500Y-75450700D01*
X181927500Y-75450700D01*
X181927500Y-74561700D01*
G37*
G04 #@! TD.AperFunction*
D12*
X176385700Y-76085700D02*
X179832000Y-76085700D01*
D11*
X179324000Y-78625700D02*
X180213000Y-78625700D01*
X180213000Y-79768700D01*
X179324000Y-79768700D01*
X179324000Y-78625700D01*
G04 #@! TA.AperFunction,NonConductor*
G36*
X179324000Y-78625700D02*
G01*
X180213000Y-78625700D01*
X180213000Y-79768700D01*
X179324000Y-79768700D01*
X179324000Y-78625700D01*
G37*
G04 #@! TD.AperFunction*
D12*
X176385700Y-76593700D02*
X179832000Y-76593700D01*
D11*
X181356000Y-77355700D02*
X182499000Y-77355700D01*
X182499000Y-78244700D01*
X181356000Y-78244700D01*
X181356000Y-77355700D01*
G04 #@! TA.AperFunction,NonConductor*
G36*
X181356000Y-77355700D02*
G01*
X182499000Y-77355700D01*
X182499000Y-78244700D01*
X181356000Y-78244700D01*
X181356000Y-77355700D01*
G37*
G04 #@! TD.AperFunction*
D12*
X176385700Y-74561700D02*
X179832000Y-74561700D01*
D11*
X177863500Y-71640700D02*
X178752500Y-71640700D01*
X178752500Y-72783700D01*
X177863500Y-72783700D01*
X177863500Y-71640700D01*
G04 #@! TA.AperFunction,NonConductor*
G36*
X177863500Y-71640700D02*
G01*
X178752500Y-71640700D01*
X178752500Y-72783700D01*
X177863500Y-72783700D01*
X177863500Y-71640700D01*
G37*
G04 #@! TD.AperFunction*
D12*
X176385700Y-75577700D02*
X179832000Y-75577700D01*
X176385700Y-77609700D02*
X179832000Y-77609700D01*
X176385700Y-74053700D02*
X179832000Y-74053700D01*
D11*
X180848000Y-81724500D02*
X181737000Y-81724500D01*
X181737000Y-82867500D01*
X180848000Y-82867500D01*
X180848000Y-81724500D01*
G04 #@! TA.AperFunction,NonConductor*
G36*
X180848000Y-81724500D02*
G01*
X181737000Y-81724500D01*
X181737000Y-82867500D01*
X180848000Y-82867500D01*
X180848000Y-81724500D01*
G37*
G04 #@! TD.AperFunction*
X151600000Y-142300000D02*
X154600000Y-142300000D01*
X154600000Y-148300000D01*
X151600000Y-148300000D01*
X151600000Y-142300000D01*
G04 #@! TA.AperFunction,NonConductor*
G36*
X151600000Y-142300000D02*
G01*
X154600000Y-142300000D01*
X154600000Y-148300000D01*
X151600000Y-148300000D01*
X151600000Y-142300000D01*
G37*
G04 #@! TD.AperFunction*
X146600000Y-142300000D02*
X149600000Y-142300000D01*
X149600000Y-148300000D01*
X146600000Y-148300000D01*
X146600000Y-142300000D01*
G04 #@! TA.AperFunction,NonConductor*
G36*
X146600000Y-142300000D02*
G01*
X149600000Y-142300000D01*
X149600000Y-148300000D01*
X146600000Y-148300000D01*
X146600000Y-142300000D01*
G37*
G04 #@! TD.AperFunction*
X177990500Y-81661000D02*
X178879500Y-81661000D01*
X178879500Y-82804000D01*
X177990500Y-82804000D01*
X177990500Y-81661000D01*
G04 #@! TA.AperFunction,NonConductor*
G36*
X177990500Y-81661000D02*
G01*
X178879500Y-81661000D01*
X178879500Y-82804000D01*
X177990500Y-82804000D01*
X177990500Y-81661000D01*
G37*
G04 #@! TD.AperFunction*
D10*
X176627000Y-84772500D02*
X180213000Y-84772500D01*
D11*
X156600000Y-142300000D02*
X159600000Y-142300000D01*
X159600000Y-148300000D01*
X156600000Y-148300000D01*
X156600000Y-142300000D01*
G04 #@! TA.AperFunction,NonConductor*
G36*
X156600000Y-142300000D02*
G01*
X159600000Y-142300000D01*
X159600000Y-148300000D01*
X156600000Y-148300000D01*
X156600000Y-142300000D01*
G37*
G04 #@! TD.AperFunction*
X129800000Y-142300000D02*
X132800000Y-142300000D01*
X132800000Y-148300000D01*
X129800000Y-148300000D01*
X129800000Y-142300000D01*
G04 #@! TA.AperFunction,NonConductor*
G36*
X129800000Y-142300000D02*
G01*
X132800000Y-142300000D01*
X132800000Y-148300000D01*
X129800000Y-148300000D01*
X129800000Y-142300000D01*
G37*
G04 #@! TD.AperFunction*
D10*
X176627000Y-86042500D02*
X180340000Y-86042500D01*
D11*
X179451000Y-81724500D02*
X180340000Y-81724500D01*
X180340000Y-82867500D01*
X179451000Y-82867500D01*
X179451000Y-81724500D01*
G04 #@! TA.AperFunction,NonConductor*
G36*
X179451000Y-81724500D02*
G01*
X180340000Y-81724500D01*
X180340000Y-82867500D01*
X179451000Y-82867500D01*
X179451000Y-81724500D01*
G37*
G04 #@! TD.AperFunction*
X181583200Y-137971400D02*
X184329200Y-137971400D01*
X184329200Y-140768200D01*
X181583200Y-140768200D01*
X181583200Y-137971400D01*
G04 #@! TA.AperFunction,NonConductor*
G36*
X181583200Y-137971400D02*
G01*
X184329200Y-137971400D01*
X184329200Y-140768200D01*
X181583200Y-140768200D01*
X181583200Y-137971400D01*
G37*
G04 #@! TD.AperFunction*
X181927500Y-85026500D02*
X183070500Y-85026500D01*
X183070500Y-85915500D01*
X181927500Y-85915500D01*
X181927500Y-85026500D01*
G04 #@! TA.AperFunction,NonConductor*
G36*
X181927500Y-85026500D02*
G01*
X183070500Y-85026500D01*
X183070500Y-85915500D01*
X181927500Y-85915500D01*
X181927500Y-85026500D01*
G37*
G04 #@! TD.AperFunction*
D10*
X176627000Y-83502500D02*
X179959000Y-83502500D01*
X176627000Y-89217500D02*
X179959000Y-89217500D01*
D11*
X109800000Y-142300000D02*
X112800000Y-142300000D01*
X112800000Y-148300000D01*
X109800000Y-148300000D01*
X109800000Y-142300000D01*
G04 #@! TA.AperFunction,NonConductor*
G36*
X109800000Y-142300000D02*
G01*
X112800000Y-142300000D01*
X112800000Y-148300000D01*
X109800000Y-148300000D01*
X109800000Y-142300000D01*
G37*
G04 #@! TD.AperFunction*
D10*
X176627000Y-85407500D02*
X180340000Y-85407500D01*
D11*
X134800000Y-142300000D02*
X137800000Y-142300000D01*
X137800000Y-148300000D01*
X134800000Y-148300000D01*
X134800000Y-142300000D01*
G04 #@! TA.AperFunction,NonConductor*
G36*
X134800000Y-142300000D02*
G01*
X137800000Y-142300000D01*
X137800000Y-148300000D01*
X134800000Y-148300000D01*
X134800000Y-142300000D01*
G37*
G04 #@! TD.AperFunction*
X99200000Y-138022200D02*
X102200000Y-138022200D01*
X102200000Y-140768200D01*
X99200000Y-140768200D01*
X99200000Y-138022200D01*
G04 #@! TA.AperFunction,NonConductor*
G36*
X99200000Y-138022200D02*
G01*
X102200000Y-138022200D01*
X102200000Y-140768200D01*
X99200000Y-140768200D01*
X99200000Y-138022200D01*
G37*
G04 #@! TD.AperFunction*
X141600000Y-142300000D02*
X144600000Y-142300000D01*
X144600000Y-148300000D01*
X141600000Y-148300000D01*
X141600000Y-142300000D01*
G04 #@! TA.AperFunction,NonConductor*
G36*
X141600000Y-142300000D02*
G01*
X144600000Y-142300000D01*
X144600000Y-148300000D01*
X141600000Y-148300000D01*
X141600000Y-142300000D01*
G37*
G04 #@! TD.AperFunction*
X181927500Y-86550500D02*
X183070500Y-86550500D01*
X183070500Y-87439500D01*
X181927500Y-87439500D01*
X181927500Y-86550500D01*
G04 #@! TA.AperFunction,NonConductor*
G36*
X181927500Y-86550500D02*
G01*
X183070500Y-86550500D01*
X183070500Y-87439500D01*
X181927500Y-87439500D01*
X181927500Y-86550500D01*
G37*
G04 #@! TD.AperFunction*
D10*
X176627000Y-87947500D02*
X180340000Y-87947500D01*
X112450000Y-131580000D02*
G75*
G02*
X108450000Y-131580000I-2000000J0D01*
G01*
X108450000Y-131580000D02*
G75*
G02*
X112450000Y-131580000I2000000J0D01*
G01*
X176627000Y-88582500D02*
X180340000Y-88582500D01*
D13*
X123190000Y-82550000D02*
X148590000Y-82550000D01*
X148590000Y-102235000D01*
X123190000Y-102235000D01*
X123190000Y-82550000D01*
G04 #@! TA.AperFunction,Conductor*
G36*
X123190000Y-82550000D02*
G01*
X148590000Y-82550000D01*
X148590000Y-102235000D01*
X123190000Y-102235000D01*
X123190000Y-82550000D01*
G37*
G04 #@! TD.AperFunction*
D10*
X176627000Y-84137500D02*
X180086000Y-84137500D01*
X112450000Y-52070000D02*
G75*
G02*
X108450000Y-52070000I-2000000J0D01*
G01*
X108450000Y-52070000D02*
G75*
G02*
X112450000Y-52070000I2000000J0D01*
G01*
D11*
X161600000Y-142300000D02*
X164600000Y-142300000D01*
X164600000Y-148300000D01*
X161600000Y-148300000D01*
X161600000Y-142300000D01*
G04 #@! TA.AperFunction,NonConductor*
G36*
X161600000Y-142300000D02*
G01*
X164600000Y-142300000D01*
X164600000Y-148300000D01*
X161600000Y-148300000D01*
X161600000Y-142300000D01*
G37*
G04 #@! TD.AperFunction*
D10*
X170950000Y-131572000D02*
G75*
G02*
X166950000Y-131572000I-2000000J0D01*
G01*
X166950000Y-131572000D02*
G75*
G02*
X170950000Y-131572000I2000000J0D01*
G01*
X170950000Y-52070000D02*
G75*
G02*
X166950000Y-52070000I-2000000J0D01*
G01*
X166950000Y-52070000D02*
G75*
G02*
X170950000Y-52070000I2000000J0D01*
G01*
D14*
X156845000Y-57277000D02*
X165608000Y-57277000D01*
X165608000Y-58928000D01*
X156845000Y-58928000D01*
X156845000Y-57277000D01*
G04 #@! TA.AperFunction,NonConductor*
G36*
X156845000Y-57277000D02*
G01*
X165608000Y-57277000D01*
X165608000Y-58928000D01*
X156845000Y-58928000D01*
X156845000Y-57277000D01*
G37*
G04 #@! TD.AperFunction*
D11*
X166600000Y-142300000D02*
X169600000Y-142300000D01*
X169600000Y-148300000D01*
X166600000Y-148300000D01*
X166600000Y-142300000D01*
G04 #@! TA.AperFunction,NonConductor*
G36*
X166600000Y-142300000D02*
G01*
X169600000Y-142300000D01*
X169600000Y-148300000D01*
X166600000Y-148300000D01*
X166600000Y-142300000D01*
G37*
G04 #@! TD.AperFunction*
X171600000Y-142300000D02*
X174600000Y-142300000D01*
X174600000Y-148300000D01*
X171600000Y-148300000D01*
X171600000Y-142300000D01*
G04 #@! TA.AperFunction,NonConductor*
G36*
X171600000Y-142300000D02*
G01*
X174600000Y-142300000D01*
X174600000Y-148300000D01*
X171600000Y-148300000D01*
X171600000Y-142300000D01*
G37*
G04 #@! TD.AperFunction*
D10*
X176627000Y-87312500D02*
X180340000Y-87312500D01*
D11*
X119800000Y-142300000D02*
X122800000Y-142300000D01*
X122800000Y-148300000D01*
X119800000Y-148300000D01*
X119800000Y-142300000D01*
G04 #@! TA.AperFunction,NonConductor*
G36*
X119800000Y-142300000D02*
G01*
X122800000Y-142300000D01*
X122800000Y-148300000D01*
X119800000Y-148300000D01*
X119800000Y-142300000D01*
G37*
G04 #@! TD.AperFunction*
X180848000Y-89598500D02*
X181737000Y-89598500D01*
X181737000Y-90741500D01*
X180848000Y-90741500D01*
X180848000Y-89598500D01*
G04 #@! TA.AperFunction,NonConductor*
G36*
X180848000Y-89598500D02*
G01*
X181737000Y-89598500D01*
X181737000Y-90741500D01*
X180848000Y-90741500D01*
X180848000Y-89598500D01*
G37*
G04 #@! TD.AperFunction*
X179451000Y-89725500D02*
X180340000Y-89725500D01*
X180340000Y-90868500D01*
X179451000Y-90868500D01*
X179451000Y-89725500D01*
G04 #@! TA.AperFunction,NonConductor*
G36*
X179451000Y-89725500D02*
G01*
X180340000Y-89725500D01*
X180340000Y-90868500D01*
X179451000Y-90868500D01*
X179451000Y-89725500D01*
G37*
G04 #@! TD.AperFunction*
X177990500Y-89725500D02*
X178879500Y-89725500D01*
X178879500Y-90868500D01*
X177990500Y-90868500D01*
X177990500Y-89725500D01*
G04 #@! TA.AperFunction,NonConductor*
G36*
X177990500Y-89725500D02*
G01*
X178879500Y-89725500D01*
X178879500Y-90868500D01*
X177990500Y-90868500D01*
X177990500Y-89725500D01*
G37*
G04 #@! TD.AperFunction*
X124800000Y-142300000D02*
X127800000Y-142300000D01*
X127800000Y-148300000D01*
X124800000Y-148300000D01*
X124800000Y-142300000D01*
G04 #@! TA.AperFunction,NonConductor*
G36*
X124800000Y-142300000D02*
G01*
X127800000Y-142300000D01*
X127800000Y-148300000D01*
X124800000Y-148300000D01*
X124800000Y-142300000D01*
G37*
G04 #@! TD.AperFunction*
X181483000Y-83439000D02*
X182626000Y-83439000D01*
X182626000Y-84328000D01*
X181483000Y-84328000D01*
X181483000Y-83439000D01*
G04 #@! TA.AperFunction,NonConductor*
G36*
X181483000Y-83439000D02*
G01*
X182626000Y-83439000D01*
X182626000Y-84328000D01*
X181483000Y-84328000D01*
X181483000Y-83439000D01*
G37*
G04 #@! TD.AperFunction*
X181483000Y-88074500D02*
X182626000Y-88074500D01*
X182626000Y-88963500D01*
X181483000Y-88963500D01*
X181483000Y-88074500D01*
G04 #@! TA.AperFunction,NonConductor*
G36*
X181483000Y-88074500D02*
G01*
X182626000Y-88074500D01*
X182626000Y-88963500D01*
X181483000Y-88963500D01*
X181483000Y-88074500D01*
G37*
G04 #@! TD.AperFunction*
X104800000Y-142300000D02*
X107800000Y-142300000D01*
X107800000Y-148300000D01*
X104800000Y-148300000D01*
X104800000Y-142300000D01*
G04 #@! TA.AperFunction,NonConductor*
G36*
X104800000Y-142300000D02*
G01*
X107800000Y-142300000D01*
X107800000Y-148300000D01*
X104800000Y-148300000D01*
X104800000Y-142300000D01*
G37*
G04 #@! TD.AperFunction*
D10*
X176627000Y-86677500D02*
X180340000Y-86677500D01*
D11*
X114800000Y-142300000D02*
X117800000Y-142300000D01*
X117800000Y-148300000D01*
X114800000Y-148300000D01*
X114800000Y-142300000D01*
G04 #@! TA.AperFunction,NonConductor*
G36*
X114800000Y-142300000D02*
G01*
X117800000Y-142300000D01*
X117800000Y-148300000D01*
X114800000Y-148300000D01*
X114800000Y-142300000D01*
G37*
G04 #@! TD.AperFunction*
D13*
X94919800Y-138430000D02*
X97307400Y-138430000D01*
X97307400Y-140766800D01*
X94919800Y-140766800D01*
X94919800Y-138430000D01*
G04 #@! TA.AperFunction,Conductor*
G36*
X94919800Y-138430000D02*
G01*
X97307400Y-138430000D01*
X97307400Y-140766800D01*
X94919800Y-140766800D01*
X94919800Y-138430000D01*
G37*
G04 #@! TD.AperFunction*
D15*
X114619300Y-57123200D03*
X113669300Y-60123200D03*
X115569300Y-60123200D03*
D16*
X172618400Y-93865700D03*
D15*
X156032200Y-120420000D03*
X155082200Y-123420000D03*
X156982200Y-123420000D03*
D17*
X158750000Y-115847500D03*
X158750000Y-114022500D03*
X158750000Y-108227500D03*
X158750000Y-106402500D03*
D18*
X117221750Y-118110000D03*
X117221750Y-115185000D03*
D17*
X153676074Y-120565358D03*
X153676074Y-118740358D03*
X158750000Y-112037500D03*
X158750000Y-110212500D03*
D15*
X125701750Y-117340878D03*
X123801750Y-117340878D03*
X124751750Y-114340878D03*
X138295000Y-117825000D03*
X136395000Y-117825000D03*
X137345000Y-114825000D03*
X157033000Y-117857400D03*
X155133000Y-117857400D03*
X156083000Y-114857400D03*
X152080000Y-57697500D03*
X150180000Y-57697500D03*
X151130000Y-54697500D03*
X147635000Y-57634000D03*
X145735000Y-57634000D03*
X146685000Y-54634000D03*
D19*
X101717500Y-109220000D03*
D20*
X99177500Y-109220000D03*
X101717500Y-106680000D03*
D21*
X99177500Y-106680000D03*
D20*
X101717500Y-104140000D03*
X99177500Y-104140000D03*
X101717500Y-101600000D03*
X99177500Y-101600000D03*
X101717500Y-99060000D03*
X99177500Y-99060000D03*
X101717500Y-96520000D03*
X99177500Y-96520000D03*
X101717500Y-93980000D03*
X99177500Y-93980000D03*
D21*
X101717500Y-91440000D03*
X99177500Y-91440000D03*
D20*
X101717500Y-88900000D03*
X99177500Y-88900000D03*
X101717500Y-86360000D03*
X99177500Y-86360000D03*
D22*
X164541200Y-49961800D03*
D23*
X106680000Y-48049337D03*
D24*
X116840000Y-48049337D03*
D25*
X119380000Y-48049337D03*
D26*
X119380000Y-40429337D03*
D24*
X116840000Y-40429337D03*
D23*
X106680000Y-40429337D03*
D27*
X167210500Y-118101000D03*
D28*
X169490500Y-124401000D03*
D27*
X171770500Y-118101000D03*
D29*
X167045000Y-112770000D03*
D30*
X173345000Y-110490000D03*
D29*
X167045000Y-108210000D03*
D31*
X181985000Y-125055000D03*
D32*
X179705000Y-118755000D03*
D31*
X177425000Y-125055000D03*
D16*
X107950000Y-106680000D03*
D33*
X98435000Y-58420000D03*
D34*
X106035000Y-58420000D03*
D17*
X127000000Y-54967500D03*
X125095000Y-54967500D03*
X127000000Y-56792500D03*
X125095000Y-56792500D03*
D35*
X96875000Y-121920000D03*
X99975000Y-121920000D03*
D17*
X149225000Y-61872500D03*
X149225000Y-60047500D03*
D16*
X121920305Y-69850176D03*
D18*
X131191750Y-116840000D03*
X131191750Y-113915000D03*
D22*
X168910000Y-138430000D03*
D17*
X156210000Y-61872500D03*
X156210000Y-60047500D03*
D36*
X97790000Y-50165000D03*
D22*
X134620000Y-52705000D03*
D18*
X141351750Y-116840000D03*
X141351750Y-113915000D03*
D22*
X111125000Y-138430000D03*
D18*
X154686750Y-52070000D03*
X154686750Y-49145000D03*
D37*
X141472500Y-127320000D03*
X141472500Y-129220000D03*
X139197500Y-128270000D03*
D38*
X164465000Y-138430000D03*
D17*
X178562000Y-69723000D03*
X178562000Y-67898000D03*
D18*
X114681750Y-118110000D03*
X114681750Y-115185000D03*
D38*
X99695000Y-135255000D03*
D16*
X105410000Y-99695000D03*
D22*
X140970000Y-138430000D03*
D39*
X106465000Y-72725000D03*
X106465000Y-75675000D03*
D17*
X163830000Y-70762500D03*
X163830000Y-68937500D03*
D40*
X133630000Y-58420000D03*
X130530000Y-58420000D03*
D22*
X157480000Y-138430000D03*
D16*
X137160000Y-65405000D03*
D37*
X134487500Y-127320000D03*
X134487500Y-129220000D03*
X132212500Y-128270000D03*
D15*
X176234000Y-52935000D03*
X174334000Y-52935000D03*
X175284000Y-49935000D03*
D17*
X179070000Y-94892500D03*
X179070000Y-93067500D03*
X163195000Y-56157500D03*
X163195000Y-54332500D03*
D16*
X129540000Y-69850000D03*
D18*
X133731750Y-116840000D03*
X133731750Y-113915000D03*
D41*
X150495000Y-129820000D03*
X150495000Y-126720000D03*
D17*
X154305000Y-66317500D03*
X154305000Y-64492500D03*
D15*
X140650000Y-61190000D03*
X138750000Y-61190000D03*
X139700000Y-58190000D03*
D41*
X143510000Y-129820000D03*
X143510000Y-126720000D03*
D17*
X161925000Y-61872500D03*
X161925000Y-60047500D03*
D39*
X101110000Y-111380000D03*
X101110000Y-114330000D03*
D35*
X115290000Y-121920000D03*
X118390000Y-121920000D03*
D42*
X108585000Y-68833250D03*
X105660000Y-68833250D03*
D43*
X178120000Y-109987500D03*
X180020000Y-109987500D03*
X179070000Y-112262500D03*
D17*
X165100000Y-56157500D03*
X165100000Y-54332500D03*
D40*
X124105000Y-134620000D03*
X121005000Y-134620000D03*
D44*
X135890000Y-120396750D03*
X138815000Y-120396750D03*
D16*
X139700000Y-65405000D03*
D40*
X111685000Y-127254000D03*
X108585000Y-127254000D03*
D15*
X181290000Y-52935000D03*
X179390000Y-52935000D03*
X180340000Y-49935000D03*
D35*
X101955000Y-118110000D03*
X105055000Y-118110000D03*
D40*
X105055000Y-133350000D03*
X101955000Y-133350000D03*
X150775000Y-132080000D03*
X147675000Y-132080000D03*
D16*
X104648000Y-86360000D03*
D18*
X141986750Y-57150000D03*
X141986750Y-54225000D03*
D35*
X147675000Y-134620000D03*
X150775000Y-134620000D03*
D18*
X144526750Y-52070000D03*
X144526750Y-49145000D03*
D17*
X121285000Y-52982500D03*
X121285000Y-51157500D03*
X121285000Y-60602500D03*
X121285000Y-58777500D03*
X156210000Y-66317500D03*
X156210000Y-64492500D03*
D16*
X158750000Y-104140000D03*
D22*
X116205000Y-138430000D03*
D45*
X124205000Y-132080000D03*
X120905000Y-132080000D03*
D17*
X123190000Y-52982500D03*
X123190000Y-51157500D03*
D46*
X129220000Y-126867500D03*
X127320000Y-126867500D03*
X128270000Y-124592500D03*
D17*
X125095000Y-60602500D03*
X125095000Y-58777500D03*
X151130000Y-61872500D03*
X151130000Y-60047500D03*
D16*
X109855000Y-88900000D03*
D47*
X133235000Y-138685000D03*
D40*
X133630000Y-60960000D03*
X130530000Y-60960000D03*
D41*
X163830000Y-118745000D03*
X163830000Y-115645000D03*
D17*
X161290000Y-56157500D03*
X161290000Y-54332500D03*
D45*
X117855000Y-132080000D03*
X114555000Y-132080000D03*
D16*
X147320000Y-114300000D03*
X147320000Y-110490000D03*
X132080000Y-110490000D03*
X109855000Y-72390000D03*
D17*
X117475000Y-56792500D03*
X117475000Y-54967500D03*
D46*
X111085000Y-119882500D03*
X109185000Y-119882500D03*
X110135000Y-117607500D03*
D40*
X170460000Y-115443000D03*
X167360000Y-115443000D03*
X178715000Y-100330000D03*
X175615000Y-100330000D03*
D16*
X147320000Y-69850000D03*
D17*
X174752000Y-69723000D03*
X174752000Y-67898000D03*
D45*
X111785000Y-124968000D03*
X108485000Y-124968000D03*
D16*
X163830000Y-86360000D03*
X158750000Y-88900000D03*
X109855000Y-93980000D03*
X134620000Y-110490000D03*
D31*
X172460000Y-65365000D03*
X170180000Y-65365000D03*
D32*
X170180000Y-59065000D03*
D31*
X167900000Y-65365000D03*
D40*
X157760000Y-132080000D03*
X154660000Y-132080000D03*
D16*
X132080000Y-69850000D03*
D18*
X128651750Y-116840000D03*
X128651750Y-113915000D03*
D48*
X163830000Y-108940000D03*
X163830000Y-112040000D03*
D16*
X109855000Y-81280000D03*
D17*
X169164000Y-69723000D03*
X169164000Y-67898000D03*
D16*
X127000000Y-69850000D03*
X109855000Y-96520000D03*
X156210000Y-69850000D03*
D22*
X175895000Y-137160000D03*
D17*
X157480000Y-56157500D03*
X157480000Y-54332500D03*
X159385000Y-56157500D03*
X159385000Y-54332500D03*
D48*
X97155000Y-134620000D03*
X97155000Y-137720000D03*
D37*
X162427500Y-127320000D03*
X162427500Y-129220000D03*
X160152500Y-128270000D03*
D18*
X152146750Y-52070000D03*
X152146750Y-49145000D03*
D22*
X134620000Y-49530000D03*
D41*
X164465000Y-129820000D03*
X164465000Y-126720000D03*
X136525000Y-129820000D03*
X136525000Y-126720000D03*
X182880000Y-113945000D03*
X182880000Y-110845000D03*
D17*
X121285000Y-56792500D03*
X121285000Y-54967500D03*
X123190000Y-56792500D03*
X123190000Y-54967500D03*
D16*
X105410000Y-97155000D03*
X107950000Y-104140000D03*
D17*
X154305000Y-61872500D03*
X154305000Y-60047500D03*
D49*
X176807500Y-97155000D03*
X174982500Y-97155000D03*
D16*
X149860000Y-69850000D03*
D17*
X100965000Y-70762500D03*
X100965000Y-68937500D03*
D18*
X147066750Y-52070000D03*
X147066750Y-49145000D03*
D22*
X147320000Y-138430000D03*
D16*
X142214185Y-69845035D03*
D50*
X122912500Y-48895000D03*
X124737500Y-48895000D03*
D37*
X148457500Y-127320000D03*
X148457500Y-129220000D03*
X146182500Y-128270000D03*
D16*
X109851595Y-83821192D03*
D17*
X176657000Y-69723000D03*
X176657000Y-67898000D03*
D51*
X105455000Y-114170000D03*
X105455000Y-111870000D03*
D52*
X111755000Y-111870000D03*
D51*
X105455000Y-109570000D03*
D17*
X180467000Y-69723000D03*
X180467000Y-67898000D03*
D16*
X158750000Y-93980000D03*
D53*
X132545760Y-65465695D03*
X129595760Y-65465695D03*
D15*
X182560000Y-59285000D03*
X180660000Y-59285000D03*
X181610000Y-56285000D03*
D46*
X123505000Y-126867500D03*
X121605000Y-126867500D03*
X122555000Y-124592500D03*
D16*
X109855000Y-78740000D03*
D35*
X101955000Y-120650000D03*
X105055000Y-120650000D03*
D17*
X180975000Y-94892500D03*
X180975000Y-93067500D03*
D40*
X143790000Y-132080000D03*
X140690000Y-132080000D03*
D45*
X105155000Y-130810000D03*
X101855000Y-130810000D03*
D46*
X105465000Y-63100120D03*
X103565000Y-63100120D03*
X104515000Y-60825120D03*
D17*
X119380000Y-56792500D03*
X119380000Y-54967500D03*
D16*
X144780000Y-65405000D03*
D49*
X180617500Y-97155000D03*
X178792500Y-97155000D03*
D35*
X169900000Y-100330000D03*
X173000000Y-100330000D03*
D16*
X127000000Y-110490000D03*
D22*
X138430000Y-52705000D03*
D17*
X159943800Y-51077500D03*
X159943800Y-49252500D03*
D16*
X158750000Y-99060000D03*
D40*
X129507929Y-130796039D03*
X126407929Y-130796039D03*
X117755000Y-134620000D03*
X114655000Y-134620000D03*
D45*
X129607929Y-133336039D03*
X126307929Y-133336039D03*
D18*
X149606750Y-52070000D03*
X149606750Y-49145000D03*
D35*
X133780000Y-134620000D03*
X136880000Y-134620000D03*
D22*
X121285000Y-138430000D03*
D16*
X119380000Y-110490000D03*
X142240000Y-110490000D03*
D17*
X99060000Y-66952500D03*
X99060000Y-65127500D03*
D40*
X105055000Y-128270000D03*
X101955000Y-128270000D03*
D17*
X158115000Y-61872500D03*
X158115000Y-60047500D03*
D37*
X155442500Y-127320000D03*
X155442500Y-129220000D03*
X153167500Y-128270000D03*
D17*
X99060000Y-74572500D03*
X99060000Y-72747500D03*
D35*
X140690000Y-134620000D03*
X143790000Y-134620000D03*
D16*
X158750000Y-76200000D03*
D17*
X99060000Y-70762500D03*
X99060000Y-68937500D03*
D50*
X126722500Y-48895000D03*
X128547500Y-48895000D03*
D16*
X109855000Y-86360000D03*
D35*
X126720000Y-121920000D03*
X129820000Y-121920000D03*
D16*
X158750000Y-83820000D03*
X109855000Y-99060000D03*
D54*
X119175000Y-113790000D03*
X122125000Y-113790000D03*
D22*
X181610000Y-135255000D03*
D17*
X160020000Y-70762500D03*
X160020000Y-68937500D03*
X161925000Y-66317500D03*
X161925000Y-64492500D03*
D16*
X149860000Y-110490000D03*
X182245000Y-100330000D03*
X158750000Y-86360000D03*
D17*
X158115000Y-66317500D03*
X158115000Y-64492500D03*
X182372000Y-69723000D03*
X182372000Y-67898000D03*
X117475000Y-52982500D03*
X117475000Y-51157500D03*
X100965000Y-66952500D03*
X100965000Y-65127500D03*
X145415000Y-61872500D03*
X145415000Y-60047500D03*
X123190000Y-60602500D03*
X123190000Y-58777500D03*
X147320000Y-61872500D03*
X147320000Y-60047500D03*
D22*
X161290000Y-138430000D03*
D16*
X144780000Y-110490000D03*
D17*
X161848800Y-51077500D03*
X161848800Y-49252500D03*
D45*
X99440000Y-132080000D03*
X96140000Y-132080000D03*
D22*
X126365000Y-138430000D03*
D16*
X115951000Y-110490000D03*
D17*
X143510000Y-61872500D03*
X143510000Y-60047500D03*
X128905000Y-52982500D03*
X128905000Y-51157500D03*
D40*
X173635000Y-104775000D03*
X170535000Y-104775000D03*
D16*
X121922049Y-65389662D03*
D22*
X152400000Y-138430000D03*
D16*
X134875000Y-65405000D03*
D35*
X121005000Y-121920000D03*
X124105000Y-121920000D03*
D18*
X141986750Y-52070000D03*
X141986750Y-49145000D03*
D17*
X171069000Y-69723000D03*
X171069000Y-67898000D03*
D16*
X158750000Y-96520000D03*
X139700000Y-110490000D03*
D42*
X113665000Y-68833250D03*
X110740000Y-68833250D03*
D16*
X129540000Y-110490000D03*
D17*
X177165000Y-94892500D03*
X177165000Y-93067500D03*
D46*
X117155000Y-126867500D03*
X115255000Y-126867500D03*
X116205000Y-124592500D03*
D16*
X149860000Y-65405000D03*
X144780000Y-69850000D03*
D17*
X172847000Y-69723000D03*
X172847000Y-67898000D03*
D40*
X164491000Y-132080000D03*
X161391000Y-132080000D03*
D17*
X161925000Y-70762500D03*
X161925000Y-68937500D03*
X100965000Y-74572500D03*
X100965000Y-72747500D03*
X127000000Y-52982500D03*
X127000000Y-51157500D03*
D18*
X154686750Y-57150000D03*
X154686750Y-54225000D03*
D40*
X130142929Y-135876039D03*
X127042929Y-135876039D03*
D17*
X160020000Y-66317500D03*
X160020000Y-64492500D03*
D44*
X141605000Y-120396750D03*
X144530000Y-120396750D03*
D40*
X107062380Y-65670000D03*
X103962380Y-65670000D03*
D35*
X154660000Y-134620000D03*
X157760000Y-134620000D03*
D17*
X115570000Y-52982500D03*
X115570000Y-51157500D03*
D53*
X164222142Y-76200000D03*
X161272142Y-76200000D03*
D16*
X137160000Y-69850000D03*
D40*
X111685000Y-122555000D03*
X108585000Y-122555000D03*
X167920000Y-104775000D03*
X164820000Y-104775000D03*
D17*
X119380000Y-52982500D03*
X119380000Y-51157500D03*
D41*
X182880000Y-106960000D03*
X182880000Y-103860000D03*
D42*
X118745000Y-68833250D03*
X115820000Y-68833250D03*
D35*
X161391000Y-134620000D03*
X164491000Y-134620000D03*
D16*
X153670000Y-110490000D03*
D46*
X111276000Y-59312500D03*
X109376000Y-59312500D03*
X110326000Y-57037500D03*
D40*
X110995000Y-62284000D03*
X107895000Y-62284000D03*
X124105000Y-129540000D03*
X121005000Y-129540000D03*
D41*
X163830000Y-124105000D03*
X163830000Y-121005000D03*
D16*
X149860000Y-114300000D03*
D22*
X138430000Y-49530000D03*
D16*
X142246682Y-65413579D03*
D46*
X98740000Y-126867500D03*
X96840000Y-126867500D03*
X97790000Y-124592500D03*
D16*
X158750000Y-91440000D03*
X121920000Y-110490000D03*
X109855000Y-76200000D03*
X127000000Y-65405000D03*
D40*
X179350000Y-104775000D03*
X176250000Y-104775000D03*
D17*
X175260000Y-94892500D03*
X175260000Y-93067500D03*
D50*
X130532500Y-48895000D03*
X132357500Y-48895000D03*
D41*
X157480000Y-129820000D03*
X157480000Y-126720000D03*
D17*
X125095000Y-52982500D03*
X125095000Y-51157500D03*
D16*
X139700000Y-69850000D03*
D17*
X119380000Y-60602500D03*
X119380000Y-58777500D03*
D40*
X136880000Y-132080000D03*
X133780000Y-132080000D03*
D46*
X104455000Y-125597500D03*
X102555000Y-125597500D03*
X103505000Y-123322500D03*
D36*
X102870000Y-50165000D03*
D40*
X117755000Y-129540000D03*
X114655000Y-129540000D03*
D22*
X106045000Y-138430000D03*
D16*
X109855000Y-91440000D03*
D17*
X160020000Y-61872500D03*
X160020000Y-60047500D03*
D35*
X96875000Y-129540000D03*
X99975000Y-129540000D03*
D55*
X100736400Y-139903200D03*
X96189800Y-139827000D03*
D56*
X116300000Y-143500000D03*
D57*
X178193596Y-59858338D03*
D56*
X158000000Y-143500000D03*
D57*
X178193596Y-64858338D03*
D56*
X121300000Y-143500000D03*
X153100000Y-143500000D03*
X143100000Y-143500000D03*
X136300000Y-143500000D03*
X168100000Y-143500000D03*
X111300000Y-143500000D03*
X163100000Y-143500000D03*
X173100000Y-143500000D03*
X126300000Y-143500000D03*
D57*
X175693596Y-62358338D03*
D56*
X131200000Y-143500000D03*
X148100000Y-143500000D03*
X183100000Y-139300000D03*
X106300000Y-143500000D03*
D58*
X105410000Y-99695000D03*
X105410000Y-97155000D03*
X144780000Y-69850000D03*
X144780000Y-65405000D03*
X142240000Y-65405000D03*
X137160000Y-65405000D03*
X137160000Y-69850000D03*
X139700000Y-69850000D03*
X139700000Y-65405000D03*
X147320000Y-69850000D03*
X149860000Y-69850000D03*
X149860000Y-65405000D03*
X134875000Y-65405000D03*
D59*
X164541200Y-49961800D02*
X164541200Y-51587400D01*
X164541200Y-51587400D02*
X166370000Y-53416200D01*
X166370000Y-53416200D02*
X166370000Y-66446400D01*
X166370000Y-66446400D02*
X167640000Y-67716400D01*
X167640000Y-67716400D02*
X167640000Y-91435794D01*
X167640000Y-91435794D02*
X170069906Y-93865700D01*
X170069906Y-93865700D02*
X172618400Y-93865700D01*
D60*
X171069000Y-89344500D02*
X171196000Y-89471500D01*
X171196000Y-89471500D02*
X171196000Y-89852500D01*
X173355000Y-83121500D02*
X173355000Y-82105500D01*
X171069000Y-83883500D02*
X171069000Y-82486500D01*
X172974000Y-90043000D02*
X173101000Y-90170000D01*
X171069000Y-87947500D02*
X170561000Y-88455500D01*
X173101000Y-90297000D02*
X173101000Y-89344500D01*
X171577000Y-88582500D02*
X171196000Y-88582500D01*
X171577000Y-86042500D02*
X170688000Y-86042500D01*
X171577000Y-84772500D02*
X171323000Y-84772500D01*
X171323000Y-84137500D02*
X171069000Y-83883500D01*
X170116500Y-85471000D02*
X168910000Y-85471000D01*
X170180000Y-87058500D02*
X168973500Y-87058500D01*
X171196000Y-88582500D02*
X171069000Y-88709500D01*
X171577000Y-87947500D02*
X171069000Y-87947500D01*
X170561000Y-84010500D02*
X170561000Y-82740500D01*
X170561000Y-88455500D02*
X170561000Y-89852500D01*
X171577000Y-84137500D02*
X171323000Y-84137500D01*
X171069000Y-82359500D02*
X171323000Y-82105500D01*
X171323000Y-84772500D02*
X170561000Y-84010500D01*
X171005500Y-85407500D02*
X169481500Y-83883500D01*
X170561000Y-86677500D02*
X170180000Y-87058500D01*
X171577000Y-87312500D02*
X170688000Y-87312500D01*
X171069000Y-88709500D02*
X171069000Y-89344500D01*
X170688000Y-86042500D02*
X170116500Y-85471000D01*
X171196000Y-89852500D02*
X171640500Y-90297000D01*
X171577000Y-86677500D02*
X170561000Y-86677500D01*
X170561000Y-82740500D02*
X170243500Y-82423000D01*
X171577000Y-85407500D02*
X171005500Y-85407500D01*
X168973500Y-87058500D02*
X168910000Y-86995000D01*
X172974000Y-83502500D02*
X173355000Y-83121500D01*
X170688000Y-87312500D02*
X169481500Y-88519000D01*
X171631850Y-75082400D02*
X171060350Y-75082400D01*
X173155850Y-78257400D02*
X173028850Y-78130400D01*
X170171350Y-75018900D02*
X168964850Y-75018900D01*
X170615850Y-72542400D02*
X170298350Y-72224900D01*
X173028850Y-73558400D02*
X173409850Y-73177400D01*
X171631850Y-76606400D02*
X170742850Y-76606400D01*
X170552350Y-77495400D02*
X170552350Y-78955900D01*
X170742850Y-76606400D02*
X169536350Y-77812900D01*
X171060350Y-75082400D02*
X169536350Y-73558400D01*
X173028850Y-79082900D02*
X173155850Y-79209900D01*
X171631850Y-74066400D02*
X171377850Y-74066400D01*
X171123850Y-72415400D02*
X171377850Y-72161400D01*
X171123850Y-77622400D02*
X171123850Y-78638400D01*
X171377850Y-74574400D02*
X170615850Y-73812400D01*
X171631850Y-77114400D02*
X170933350Y-77114400D01*
X171631850Y-74574400D02*
X171377850Y-74574400D01*
X170615850Y-73812400D02*
X170615850Y-72542400D01*
X171631850Y-77622400D02*
X171123850Y-77622400D01*
X170552350Y-78955900D02*
X170615850Y-78892400D01*
X170742850Y-75590400D02*
X170171350Y-75018900D01*
X170234850Y-76479400D02*
X169028350Y-76479400D01*
X171123850Y-73812400D02*
X171123850Y-72415400D01*
X171631850Y-75590400D02*
X170742850Y-75590400D01*
X173409850Y-73177400D02*
X173409850Y-72161400D01*
X173155850Y-79209900D02*
X173155850Y-78257400D01*
X170933350Y-77114400D02*
X170552350Y-77495400D01*
X171123850Y-78638400D02*
X171695350Y-79209900D01*
X171631850Y-76098400D02*
X170615850Y-76098400D01*
X170615850Y-76098400D02*
X170234850Y-76479400D01*
X171377850Y-74066400D02*
X171123850Y-73812400D01*
X169028350Y-76479400D02*
X168964850Y-76415900D01*
X182435500Y-76466700D02*
X182499000Y-76403200D01*
X180086000Y-74053700D02*
X180340000Y-73799700D01*
X180848000Y-76085700D02*
X181229000Y-76466700D01*
X179832000Y-76085700D02*
X180848000Y-76085700D01*
X180340000Y-78625700D02*
X179768500Y-79197200D01*
X180530500Y-77101700D02*
X180911500Y-77482700D01*
X178308000Y-79197200D02*
X178308000Y-78244700D01*
X178054000Y-73164700D02*
X178054000Y-72148700D01*
X179832000Y-75577700D02*
X180721000Y-75577700D01*
X180340000Y-73799700D02*
X180340000Y-72402700D01*
X181229000Y-76466700D02*
X182435500Y-76466700D01*
X180721000Y-75577700D02*
X181292500Y-75006200D01*
X180911500Y-78943200D02*
X180848000Y-78879700D01*
X179832000Y-77609700D02*
X180340000Y-77609700D01*
X180848000Y-73799700D02*
X180848000Y-72529700D01*
X179832000Y-74561700D02*
X180086000Y-74561700D01*
X179832000Y-77101700D02*
X180530500Y-77101700D01*
X180086000Y-74561700D02*
X180848000Y-73799700D01*
X180340000Y-77609700D02*
X180340000Y-78625700D01*
X180340000Y-72402700D02*
X180086000Y-72148700D01*
X179832000Y-74053700D02*
X180086000Y-74053700D01*
X178435000Y-79070200D02*
X178308000Y-79197200D01*
X180403500Y-75069700D02*
X181927500Y-73545700D01*
X180721000Y-76593700D02*
X181927500Y-77800200D01*
X180911500Y-77482700D02*
X180911500Y-78943200D01*
X179832000Y-76593700D02*
X180721000Y-76593700D01*
X178435000Y-73545700D02*
X178054000Y-73164700D01*
X180848000Y-72529700D02*
X181165500Y-72212200D01*
X181292500Y-75006200D02*
X182499000Y-75006200D01*
X178308000Y-78244700D02*
X178435000Y-78117700D01*
X179832000Y-75069700D02*
X180403500Y-75069700D01*
D61*
X157505400Y-52146200D02*
X157480000Y-52171600D01*
X157480000Y-47602651D02*
X156413200Y-47602651D01*
D62*
X157505400Y-49987200D02*
X157505400Y-52146200D01*
D61*
X157480000Y-49961800D02*
X157505400Y-49987200D01*
X157480000Y-47602651D02*
X157480000Y-49961800D01*
X184127651Y-47602651D02*
X157480000Y-47602651D01*
X156413200Y-47602651D02*
X122577349Y-47602651D01*
D63*
X97080000Y-137160000D02*
X103505000Y-137160000D01*
X103505000Y-137160000D02*
X103505000Y-138684000D01*
X103505000Y-138684000D02*
X105791000Y-140970000D01*
X105791000Y-140970000D02*
X106045000Y-140970000D01*
D61*
X122097800Y-38506400D02*
X121996200Y-38404800D01*
X122577349Y-47602651D02*
X122555000Y-47625000D01*
X122555000Y-47625000D02*
X122097800Y-47167800D01*
X122097800Y-47167800D02*
X122097800Y-38506400D01*
X121996200Y-38404800D02*
X104140000Y-38404800D01*
X104140000Y-47574200D02*
X100380800Y-47574200D01*
X104140000Y-38404800D02*
X104140000Y-47574200D01*
X100380800Y-47574200D02*
X97790000Y-50165000D01*
D59*
X138430000Y-49530000D02*
X138430000Y-47628051D01*
D63*
X184150000Y-47752000D02*
X184150000Y-100965000D01*
D64*
X95316000Y-109220000D02*
X95316000Y-114300000D01*
D59*
X95346000Y-114330000D02*
X95316000Y-114300000D01*
D64*
X101110000Y-114330000D02*
X95346000Y-114330000D01*
X105455000Y-109570000D02*
X102565000Y-106680000D01*
X102565000Y-106680000D02*
X97155000Y-106680000D01*
X101600000Y-59690000D02*
X101600000Y-58420000D01*
X97155000Y-106680000D02*
X96875600Y-106400600D01*
X96875600Y-106400600D02*
X96875600Y-64414400D01*
X96875600Y-64414400D02*
X101600000Y-59690000D01*
X95316000Y-114300000D02*
X95316000Y-126974600D01*
D59*
X96840000Y-126867500D02*
X95423100Y-126867500D01*
X95423100Y-126867500D02*
X95316000Y-126974600D01*
D64*
X95316000Y-126974600D02*
X95316000Y-138978600D01*
X95316000Y-138978600D02*
X96037400Y-139700000D01*
X97790000Y-50165000D02*
X97808671Y-50183671D01*
X97808671Y-50183671D02*
X97808671Y-53264959D01*
X97808671Y-53264959D02*
X95316000Y-55757630D01*
X95316000Y-55757630D02*
X95316000Y-109220000D01*
X95316000Y-109220000D02*
X99177500Y-109220000D01*
D59*
X97155000Y-137720000D02*
X97155000Y-137349002D01*
X101600000Y-104140000D02*
X104010000Y-104140000D01*
X104010000Y-104140000D02*
X106550000Y-106680000D01*
X106550000Y-106680000D02*
X107950000Y-106680000D01*
D60*
X179959000Y-86677500D02*
X180975000Y-86677500D01*
X182562500Y-87058500D02*
X182626000Y-86995000D01*
X180467000Y-87947500D02*
X180975000Y-88455500D01*
X179959000Y-84137500D02*
X180213000Y-84137500D01*
X180213000Y-84772500D02*
X180975000Y-84010500D01*
X180848000Y-87312500D02*
X182054500Y-88519000D01*
X180340000Y-89852500D02*
X179895500Y-90297000D01*
X179959000Y-85407500D02*
X180530500Y-85407500D01*
X180975000Y-82740500D02*
X181292500Y-82423000D01*
X179959000Y-87947500D02*
X180467000Y-87947500D01*
X180340000Y-88582500D02*
X180467000Y-88709500D01*
X180340000Y-89471500D02*
X180340000Y-89852500D01*
X178562000Y-83502500D02*
X178181000Y-83121500D01*
X181356000Y-87058500D02*
X182562500Y-87058500D01*
X179959000Y-84772500D02*
X180213000Y-84772500D01*
X180467000Y-88709500D02*
X180467000Y-89344500D01*
X180213000Y-84137500D02*
X180467000Y-83883500D01*
X179959000Y-86042500D02*
X180848000Y-86042500D01*
X179959000Y-88582500D02*
X180340000Y-88582500D01*
X180975000Y-84010500D02*
X180975000Y-82740500D01*
X180975000Y-88455500D02*
X180975000Y-89852500D01*
X180467000Y-82359500D02*
X180213000Y-82105500D01*
X180848000Y-86042500D02*
X181419500Y-85471000D01*
X180530500Y-85407500D02*
X182054500Y-83883500D01*
X180975000Y-86677500D02*
X181356000Y-87058500D01*
X178435000Y-90297000D02*
X178435000Y-89344500D01*
X178562000Y-90043000D02*
X178435000Y-90170000D01*
X180467000Y-83883500D02*
X180467000Y-82486500D01*
X181419500Y-85471000D02*
X182626000Y-85471000D01*
X179959000Y-87312500D02*
X180848000Y-87312500D01*
X178181000Y-83121500D02*
X178181000Y-82105500D01*
X180467000Y-89344500D02*
X180340000Y-89471500D01*
D59*
X99060000Y-134620000D02*
X99695000Y-135255000D01*
X100391000Y-134559000D02*
X99695000Y-135255000D01*
X100391000Y-130591000D02*
X100391000Y-134559000D01*
X96520000Y-134620000D02*
X99060000Y-134620000D01*
X99340000Y-129540000D02*
X100391000Y-130591000D01*
X96900000Y-129540000D02*
X99440000Y-132080000D01*
X98740000Y-127675000D02*
X97047500Y-129367500D01*
X98740000Y-126867500D02*
X98740000Y-127675000D01*
X96240000Y-121920000D02*
X97790000Y-123470000D01*
X107315000Y-95854999D02*
X107315000Y-100503001D01*
X96240000Y-118480998D02*
X96240000Y-121920000D01*
X107950000Y-110086000D02*
X107950000Y-114935000D01*
X107315000Y-100503001D02*
X109451000Y-102639001D01*
X107453000Y-115432000D02*
X101618345Y-115432000D01*
X97823653Y-116897345D02*
X96240000Y-118480998D01*
X110490000Y-93980000D02*
X109189999Y-93980000D01*
X109451000Y-102639001D02*
X109451000Y-108585000D01*
X109189999Y-93980000D02*
X107315000Y-95854999D01*
X100153000Y-116897344D02*
X97823653Y-116897345D01*
X97790000Y-123470000D02*
X97790000Y-124592500D01*
X107950000Y-114935000D02*
X107453000Y-115432000D01*
X101618345Y-115432000D02*
X100153000Y-116897344D01*
X109451000Y-108585000D02*
X107950000Y-110086000D01*
D61*
X164222142Y-76200000D02*
X164222142Y-79132142D01*
X132080000Y-69850000D02*
X132080000Y-72390000D01*
X127743810Y-125704000D02*
X124080024Y-125704000D01*
X133324000Y-128745810D02*
X133799810Y-128270000D01*
X118392134Y-125704000D02*
X116680810Y-125704000D01*
X131233810Y-125704000D02*
X130810000Y-125704000D01*
X175615000Y-100330000D02*
X177091000Y-98854000D01*
X147346000Y-128270000D02*
X147346000Y-128744190D01*
X133799810Y-128270000D02*
X133299200Y-127769390D01*
D59*
X164222142Y-79132142D02*
X164465000Y-79375000D01*
X133578600Y-61011400D02*
X133578600Y-62788800D01*
D61*
X147346000Y-128744190D02*
X146833500Y-129256690D01*
X110558810Y-118771000D02*
X109660810Y-118771000D01*
X106986000Y-118719000D02*
X106377000Y-118110000D01*
X147346000Y-127846190D02*
X147346000Y-128270000D01*
X129820000Y-125699546D02*
X129824454Y-125704000D01*
X130810000Y-125704000D02*
X129824454Y-125704000D01*
X111760000Y-112510000D02*
X111760000Y-118467810D01*
X166370000Y-81280000D02*
X164465000Y-79375000D01*
D64*
X166370000Y-82550000D02*
X166370000Y-81280000D01*
D61*
X128745810Y-125704000D02*
X128693810Y-125756000D01*
X159366190Y-127469000D02*
X159385000Y-127450190D01*
X147346000Y-128270000D02*
X151580190Y-128270000D01*
X103979190Y-124486000D02*
X103081190Y-124486000D01*
X145396190Y-127469000D02*
X146968810Y-127469000D01*
X146968810Y-127469000D02*
X147346000Y-127846190D01*
X175615000Y-100330000D02*
X173000000Y-100330000D01*
X129540000Y-125704000D02*
X128745810Y-125704000D01*
X151580190Y-128270000D02*
X152381190Y-127469000D01*
X131234410Y-125704600D02*
X131233810Y-125704000D01*
X158565190Y-128270000D02*
X159366190Y-127469000D01*
X161682142Y-73660000D02*
X164222142Y-76200000D01*
X114274000Y-125704000D02*
X113665000Y-125095000D01*
X152381190Y-127469000D02*
X153953810Y-127469000D01*
X139848500Y-129256690D02*
X139848500Y-131238500D01*
X113665000Y-121285000D02*
X113665000Y-120875190D01*
X110610810Y-118719000D02*
X110558810Y-118771000D01*
D64*
X173000000Y-98070000D02*
X166370000Y-91440000D01*
D59*
X133578600Y-62788800D02*
X132080000Y-64287400D01*
D61*
X153670000Y-73660000D02*
X147955000Y-79375000D01*
D64*
X166370000Y-82550000D02*
X166370000Y-67945000D01*
D61*
X160803500Y-129256690D02*
X160803500Y-131238500D01*
X129824454Y-125704000D02*
X129540000Y-125704000D01*
D64*
X166370000Y-91440000D02*
X166370000Y-82550000D01*
D61*
X147955000Y-79375000D02*
X142240000Y-79375000D01*
X118390000Y-125701866D02*
X118392134Y-125704000D01*
X133324000Y-130149000D02*
X133324000Y-128745810D01*
X133780000Y-132080000D02*
X133780000Y-130605000D01*
X173000000Y-100330000D02*
X173000000Y-98070000D01*
X131445000Y-129563122D02*
X131445000Y-137795000D01*
X159385000Y-125730000D02*
X158750000Y-125095000D01*
X128905000Y-79375000D02*
X117475000Y-79375000D01*
X119380000Y-119364000D02*
X119380000Y-110490000D01*
X154331000Y-128270000D02*
X158565190Y-128270000D01*
X130810000Y-125704000D02*
X130810000Y-128928122D01*
X180769000Y-98854000D02*
X182245000Y-100330000D01*
X118390000Y-121920000D02*
X118390000Y-125701866D01*
X138411190Y-127469000D02*
X139983810Y-127469000D01*
X177091000Y-98854000D02*
X180769000Y-98854000D01*
X139983810Y-127469000D02*
X140361000Y-127846190D01*
X113665000Y-121285000D02*
X113665000Y-120650000D01*
X156210000Y-73660000D02*
X156210000Y-69850000D01*
X109608810Y-118719000D02*
X108585000Y-118719000D01*
D59*
X111120000Y-111870000D02*
X111760000Y-112510000D01*
D61*
X140361000Y-128270000D02*
X140361000Y-128744190D01*
D59*
X104330000Y-111380000D02*
X104820000Y-111870000D01*
D61*
X105055000Y-123410190D02*
X103979190Y-124486000D01*
D59*
X133630000Y-58420000D02*
X133630000Y-60960000D01*
D61*
X160938810Y-127469000D02*
X161316000Y-127846190D01*
X128693810Y-125756000D02*
X127795810Y-125756000D01*
X122080810Y-125756000D02*
X122028810Y-125704000D01*
X113665000Y-125095000D02*
X113665000Y-121285000D01*
X154331000Y-128270000D02*
X154331000Y-128744190D01*
X152400000Y-79375000D02*
X164465000Y-79375000D01*
X149860000Y-106680000D02*
X149860000Y-81915000D01*
X137610190Y-128270000D02*
X138411190Y-127469000D01*
D59*
X101110000Y-111380000D02*
X104330000Y-111380000D01*
D61*
X127795810Y-125756000D02*
X127743810Y-125704000D01*
X146833500Y-131238500D02*
X147675000Y-132080000D01*
X129820000Y-121920000D02*
X129820000Y-125699546D01*
X133299200Y-127769390D02*
X133299200Y-125704600D01*
X124080024Y-125704000D02*
X123825000Y-125704000D01*
X146833500Y-129256690D02*
X146833500Y-131238500D01*
X153818500Y-129256690D02*
X153818500Y-131238500D01*
X133799810Y-128270000D02*
X137610190Y-128270000D01*
X133299200Y-125704600D02*
X131234410Y-125704600D01*
X149860000Y-81915000D02*
X152400000Y-79375000D01*
X114951000Y-119364000D02*
X119380000Y-119364000D01*
X161316000Y-127846190D02*
X161316000Y-128744190D01*
X156210000Y-73660000D02*
X161682142Y-73660000D01*
X124105000Y-125679024D02*
X124080024Y-125704000D01*
X117475000Y-79375000D02*
X111125000Y-73025000D01*
X140361000Y-128744190D02*
X139848500Y-129256690D01*
X105055000Y-120650000D02*
X105055000Y-123410190D01*
D59*
X142214185Y-69845035D02*
X142214185Y-69413815D01*
D61*
X154331000Y-128744190D02*
X153818500Y-129256690D01*
X106377000Y-118110000D02*
X105055000Y-118110000D01*
X159385000Y-127450190D02*
X159385000Y-125730000D01*
X153391364Y-125095000D02*
X152466000Y-124169636D01*
X108585000Y-118719000D02*
X106986000Y-118719000D01*
X123030810Y-125704000D02*
X122978810Y-125756000D01*
X139848500Y-131238500D02*
X140690000Y-132080000D01*
X106465000Y-72725000D02*
X110155000Y-72725000D01*
X152466000Y-124169636D02*
X152466000Y-112395000D01*
X111760000Y-118467810D02*
X111508810Y-118719000D01*
X106986000Y-118719000D02*
X105055000Y-120650000D01*
X116628810Y-125756000D02*
X115730810Y-125756000D01*
X140361000Y-128270000D02*
X144595190Y-128270000D01*
X132080000Y-79375000D02*
X128905000Y-79375000D01*
X100515190Y-121920000D02*
X99340000Y-121920000D01*
X122028810Y-125704000D02*
X118392134Y-125704000D01*
X113665000Y-120650000D02*
X114951000Y-119364000D01*
X103081190Y-124486000D02*
X100515190Y-121920000D01*
X140361000Y-127846190D02*
X140361000Y-128270000D01*
X160803500Y-131238500D02*
X161645000Y-132080000D01*
X142240000Y-79375000D02*
X132080000Y-79375000D01*
D59*
X110155000Y-72725000D02*
X110490000Y-72390000D01*
D61*
X153670000Y-110490000D02*
X149860000Y-106680000D01*
D59*
X142214185Y-79349185D02*
X142240000Y-79375000D01*
D61*
X158750000Y-125095000D02*
X153391364Y-125095000D01*
X109660810Y-118771000D02*
X109608810Y-118719000D01*
X115678810Y-125704000D02*
X114274000Y-125704000D01*
X115730810Y-125756000D02*
X115678810Y-125704000D01*
X130810000Y-128928122D02*
X131445000Y-129563122D01*
X128905000Y-75565000D02*
X128905000Y-79375000D01*
X122978810Y-125756000D02*
X122080810Y-125756000D01*
X153670000Y-111191000D02*
X153670000Y-110490000D01*
X161316000Y-128744190D02*
X160803500Y-129256690D01*
X142214185Y-69845035D02*
X142214185Y-79349185D01*
D59*
X133630000Y-60960000D02*
X133578600Y-61011400D01*
D61*
X132080000Y-72390000D02*
X128905000Y-75565000D01*
X159366190Y-127469000D02*
X160938810Y-127469000D01*
X156210000Y-73660000D02*
X153670000Y-73660000D01*
X111125000Y-73025000D02*
X110490000Y-72390000D01*
X152466000Y-112395000D02*
X153670000Y-111191000D01*
X111508810Y-118719000D02*
X110610810Y-118719000D01*
X113665000Y-120875190D02*
X111508810Y-118719000D01*
X124105000Y-121920000D02*
X124105000Y-125679024D01*
X123825000Y-125704000D02*
X123030810Y-125704000D01*
X133780000Y-130605000D02*
X133324000Y-130149000D01*
X153953810Y-127469000D02*
X154331000Y-127846190D01*
D59*
X132080000Y-64287400D02*
X132080000Y-69850000D01*
D61*
X144595190Y-128270000D02*
X145396190Y-127469000D01*
X154331000Y-127846190D02*
X154331000Y-128270000D01*
X116680810Y-125704000D02*
X116628810Y-125756000D01*
X153818500Y-131238500D02*
X154660000Y-132080000D01*
D59*
X101955000Y-133705000D02*
X106045000Y-137795000D01*
X101955000Y-132360000D02*
X101955000Y-133350000D01*
X101955000Y-133350000D02*
X101955000Y-133705000D01*
X106045000Y-137795000D02*
X106045000Y-138430000D01*
X105055000Y-128270000D02*
X105055000Y-129260000D01*
X105055000Y-129260000D02*
X101955000Y-132360000D01*
X105155000Y-133250000D02*
X105055000Y-133350000D01*
X104754999Y-125597500D02*
X106206000Y-127048501D01*
X106206000Y-129759000D02*
X105155000Y-130810000D01*
X106206000Y-127048501D02*
X106206000Y-129759000D01*
X105155000Y-130810000D02*
X105155000Y-133250000D01*
X104455000Y-125597500D02*
X104754999Y-125597500D01*
X107722654Y-116083000D02*
X108601000Y-115204654D01*
X108026200Y-100293547D02*
X108026200Y-97536000D01*
X110102000Y-108854653D02*
X110102000Y-102369347D01*
X108601000Y-115204654D02*
X108601000Y-110355654D01*
X103505000Y-122200000D02*
X101955000Y-120650000D01*
X108026200Y-97536000D02*
X109042200Y-96520000D01*
X108601000Y-110355654D02*
X110102000Y-108854653D01*
X109042200Y-96520000D02*
X110490000Y-96520000D01*
X101955000Y-120650000D02*
X100804000Y-119499000D01*
X101887998Y-116083000D02*
X107722654Y-116083000D01*
X100804000Y-117166998D02*
X101887998Y-116083000D01*
X100804000Y-119499000D02*
X100804000Y-117166998D01*
X103505000Y-123322500D02*
X103505000Y-122200000D01*
X110102000Y-102369347D02*
X108026200Y-100293547D01*
X111685000Y-122555000D02*
X111685000Y-123545000D01*
X107535000Y-129320000D02*
X107535000Y-133990058D01*
X107535000Y-133990058D02*
X111125000Y-137580058D01*
X111125000Y-137580058D02*
X111125000Y-138430000D01*
X108585000Y-126645000D02*
X108585000Y-127635000D01*
X108585000Y-127635000D02*
X108585000Y-128270000D01*
X108585000Y-128270000D02*
X107535000Y-129320000D01*
X111685000Y-123545000D02*
X108585000Y-126645000D01*
X112836000Y-121611998D02*
X112836000Y-124044000D01*
X111785000Y-127535000D02*
X111685000Y-127635000D01*
X112836000Y-124044000D02*
X111785000Y-125095000D01*
X111785000Y-125095000D02*
X111785000Y-127535000D01*
X111085000Y-119882500D02*
X111106502Y-119882500D01*
X111106502Y-119882500D02*
X112836000Y-121611998D01*
X109261500Y-116734000D02*
X103331000Y-116734000D01*
X110753000Y-109124305D02*
X109303654Y-110573653D01*
X109855000Y-101201693D02*
X110753000Y-102099693D01*
X110753000Y-102099693D02*
X110753000Y-109124305D01*
X110135000Y-117607500D02*
X109261500Y-116734000D01*
X109220000Y-116692500D02*
X110135000Y-117607500D01*
X109855000Y-99060000D02*
X109855000Y-101201693D01*
X109303654Y-116608846D02*
X109220000Y-116692500D01*
X103331000Y-116734000D02*
X101955000Y-118110000D01*
X109303654Y-110573653D02*
X109303654Y-116608846D01*
X117755000Y-129540000D02*
X117755000Y-130530000D01*
X116205000Y-138430000D02*
X114655000Y-136880000D01*
X114655000Y-133630000D02*
X114655000Y-134620000D01*
X117755000Y-130530000D02*
X114655000Y-133630000D01*
X114655000Y-136880000D02*
X114655000Y-134620000D01*
X118906000Y-131029000D02*
X117855000Y-132080000D01*
X117155000Y-126867500D02*
X117454999Y-126867500D01*
X117755000Y-134620000D02*
X117755000Y-132180000D01*
X117454999Y-126867500D02*
X118906000Y-128318501D01*
X118906000Y-128318501D02*
X118906000Y-131029000D01*
D13*
X117755000Y-132180000D02*
X117855000Y-132080000D01*
D59*
X125460346Y-119364000D02*
X122571000Y-119364000D01*
X115290000Y-123677500D02*
X116205000Y-124592500D01*
X142557346Y-112395000D02*
X140970000Y-112395000D01*
X132747000Y-120110695D02*
X132747000Y-122587000D01*
X115290000Y-120295000D02*
X115290000Y-121920000D01*
X146605000Y-119649654D02*
X143462000Y-116506654D01*
X132747000Y-122587000D02*
X133302000Y-123142000D01*
X132683153Y-120046847D02*
X132747000Y-120110694D01*
X143462000Y-113299654D02*
X142557346Y-112395000D01*
X146605000Y-122635000D02*
X146605000Y-119649654D01*
X140970000Y-112395000D02*
X139700000Y-111125000D01*
X122571000Y-119364000D02*
X121640000Y-120295000D01*
X131349308Y-118713000D02*
X126111347Y-118713000D01*
X132683153Y-120046847D02*
X131349308Y-118713000D01*
X115290000Y-121920000D02*
X115290000Y-123677500D01*
X133302000Y-123142000D02*
X146098000Y-123142000D01*
X126111347Y-118713000D02*
X125460346Y-119364000D01*
X146098000Y-123142000D02*
X146605000Y-122635000D01*
X143462000Y-116506654D02*
X143462000Y-113299654D01*
X121640000Y-120295000D02*
X115290000Y-120295000D01*
X132683153Y-120046847D02*
X132747000Y-120110695D01*
X139700000Y-111125000D02*
X139700000Y-110490000D01*
X132212500Y-133052500D02*
X133780000Y-134620000D01*
X132212500Y-128270000D02*
X132212500Y-133052500D01*
X137590000Y-138430000D02*
X141605000Y-138430000D01*
X133780000Y-134620000D02*
X137590000Y-138430000D01*
X148558000Y-118744847D02*
X145415000Y-115601846D01*
X147320000Y-111201200D02*
X147320000Y-110490000D01*
X136525000Y-126720000D02*
X135087500Y-126720000D01*
X136525000Y-126720000D02*
X136525000Y-125730000D01*
X136525000Y-125730000D02*
X137160000Y-125095000D01*
X137160000Y-125095000D02*
X147034346Y-125095000D01*
X147034346Y-125095000D02*
X148558000Y-123571346D01*
X145415000Y-115601846D02*
X145415000Y-113106200D01*
X135087500Y-126720000D02*
X134487500Y-127320000D01*
X148558000Y-123571346D02*
X148558000Y-118744847D01*
X145415000Y-113106200D02*
X147320000Y-111201200D01*
X167360000Y-116205000D02*
X167360000Y-118690000D01*
X161925000Y-122555000D02*
X165735000Y-122555000D01*
X160020000Y-86360000D02*
X161152000Y-87492000D01*
X165735000Y-120315000D02*
X167265000Y-118785000D01*
X167360000Y-118690000D02*
X167265000Y-118785000D01*
X165735000Y-122555000D02*
X165735000Y-120315000D01*
X161152000Y-87492000D02*
X161152000Y-121782000D01*
X161152000Y-121782000D02*
X161925000Y-122555000D01*
X158750000Y-86360000D02*
X160020000Y-86360000D01*
X136880000Y-134620000D02*
X136880000Y-132080000D01*
X141340000Y-134620000D02*
X145150000Y-138430000D01*
X138938000Y-128529500D02*
X138938000Y-132868000D01*
X140690000Y-134620000D02*
X141340000Y-134620000D01*
X138938000Y-132868000D02*
X140690000Y-134620000D01*
X145150000Y-138430000D02*
X147320000Y-138430000D01*
X139197500Y-128270000D02*
X138938000Y-128529500D01*
X146685000Y-126365000D02*
X149209000Y-123841000D01*
X144780000Y-126365000D02*
X146685000Y-126365000D01*
X147320000Y-115570000D02*
X147320000Y-114300000D01*
X149209000Y-123841000D02*
X149209000Y-117459000D01*
X143510000Y-126720000D02*
X142072500Y-126720000D01*
X144425000Y-126720000D02*
X144780000Y-126365000D01*
X143510000Y-126720000D02*
X144425000Y-126720000D01*
X149209000Y-117459000D02*
X147320000Y-115570000D01*
X142072500Y-126720000D02*
X141472500Y-127320000D01*
X147675000Y-134620000D02*
X147955000Y-134620000D01*
X146050000Y-128402500D02*
X146050000Y-132995000D01*
X151765000Y-138430000D02*
X152400000Y-138430000D01*
X146050000Y-132995000D02*
X147675000Y-134620000D01*
X146182500Y-128270000D02*
X146050000Y-128402500D01*
X147955000Y-134620000D02*
X151765000Y-138430000D01*
X150495000Y-125730000D02*
X149860000Y-125095000D01*
X149860000Y-125095000D02*
X149860000Y-114300000D01*
X150495000Y-126720000D02*
X150495000Y-125730000D01*
X149057500Y-126720000D02*
X148457500Y-127320000D01*
X150495000Y-126720000D02*
X149057500Y-126720000D01*
X154660000Y-134620000D02*
X154660000Y-135610001D01*
X152933400Y-132893400D02*
X154660000Y-134620000D01*
X154660000Y-135610001D02*
X157479999Y-138430000D01*
X152933400Y-128504100D02*
X152933400Y-132893400D01*
X153167500Y-128270000D02*
X152933400Y-128504100D01*
X157479999Y-138430000D02*
X157480000Y-138430000D01*
X157480000Y-126720000D02*
X156042500Y-126720000D01*
X154487500Y-126365000D02*
X155442500Y-127320000D01*
X149860000Y-110490000D02*
X151765000Y-112395000D01*
X151765000Y-124460000D02*
X153670000Y-126365000D01*
X153670000Y-126365000D02*
X154487500Y-126365000D01*
X156042500Y-126720000D02*
X155442500Y-127320000D01*
X151765000Y-112395000D02*
X151765000Y-124460000D01*
X159893000Y-128529500D02*
X159893000Y-132868000D01*
X161645000Y-138075000D02*
X161290000Y-138430000D01*
X160152500Y-128270000D02*
X159893000Y-128529500D01*
X159893000Y-132868000D02*
X161645000Y-134620000D01*
X161645000Y-134620000D02*
X161645000Y-138075000D01*
X160501000Y-100811000D02*
X160501000Y-122051654D01*
X161290000Y-125095000D02*
X162427500Y-126232500D01*
X162427500Y-126232500D02*
X162427500Y-127320000D01*
X160501000Y-122051654D02*
X161290000Y-122840654D01*
X161290000Y-122840654D02*
X161290000Y-125095000D01*
X164465000Y-126720000D02*
X163027500Y-126720000D01*
X163027500Y-126720000D02*
X162427500Y-127320000D01*
X158750000Y-99060000D02*
X160501000Y-100811000D01*
X143790000Y-132080000D02*
X143790000Y-134620000D01*
X150775000Y-134620000D02*
X150775000Y-132080000D01*
X157760000Y-134620000D02*
X157760000Y-132080000D01*
X164745000Y-134620000D02*
X164461722Y-134336722D01*
X164461722Y-132363278D02*
X164745000Y-132080000D01*
X164461722Y-134336722D02*
X164461722Y-132363278D01*
X163830000Y-121005000D02*
X163830000Y-118745000D01*
X161803000Y-85572999D02*
X160050001Y-83820000D01*
X165206000Y-114609000D02*
X165206000Y-116363002D01*
X167045000Y-112770000D02*
X165206000Y-114609000D01*
X161803000Y-116718000D02*
X161803000Y-85572999D01*
X161881000Y-116796000D02*
X161803000Y-116718000D01*
X165206000Y-116363002D02*
X164773002Y-116796000D01*
X160050001Y-83820000D02*
X158750000Y-83820000D01*
X164560000Y-112770000D02*
X163830000Y-112040000D01*
X167045000Y-112770000D02*
X164560000Y-112770000D01*
X164773002Y-116796000D02*
X161881000Y-116796000D01*
X184256000Y-113226998D02*
X184256000Y-113665000D01*
X184256000Y-113665000D02*
X184256000Y-122784000D01*
X182880000Y-106960000D02*
X183901000Y-106960000D01*
X183901000Y-106960000D02*
X184256000Y-107315000D01*
X184256000Y-107315000D02*
X184256000Y-113665000D01*
X183291502Y-112262500D02*
X184256000Y-113226998D01*
X184256000Y-122784000D02*
X181985000Y-125055000D01*
X179070000Y-112262500D02*
X183291502Y-112262500D01*
X170535000Y-104775000D02*
X167920000Y-104775000D01*
X182880000Y-110845000D02*
X182880000Y-109855000D01*
X182880000Y-109855000D02*
X179350000Y-106325000D01*
X179350000Y-106325000D02*
X179350000Y-104775000D01*
X165912500Y-103682500D02*
X164820000Y-104775000D01*
X166725000Y-102870000D02*
X165912500Y-103682500D01*
X169545000Y-102870000D02*
X166725000Y-102870000D01*
X169900000Y-100330000D02*
X169900000Y-102515000D01*
X176250000Y-104775000D02*
X174345000Y-102870000D01*
X169900000Y-102515000D02*
X169545000Y-102870000D01*
X164820000Y-104775000D02*
X162454000Y-107141000D01*
X174345000Y-102870000D02*
X169545000Y-102870000D01*
X162454000Y-107141000D02*
X162454000Y-114269000D01*
X162454000Y-114269000D02*
X163830000Y-115645000D01*
D64*
X173274000Y-134295642D02*
X173274000Y-130419904D01*
X173274000Y-130419904D02*
X169545000Y-126690904D01*
D59*
X168565000Y-124105000D02*
X169545000Y-125085000D01*
D64*
X169139642Y-138430000D02*
X173274000Y-134295642D01*
D59*
X163830000Y-124105000D02*
X168565000Y-124105000D01*
D64*
X169545000Y-126690904D02*
X169545000Y-125085000D01*
D59*
X173635000Y-110200000D02*
X173345000Y-110490000D01*
X173635000Y-104285000D02*
X173635000Y-110200000D01*
D64*
X177165000Y-129540000D02*
X175260000Y-127635000D01*
X175895000Y-137160000D02*
X177165000Y-135890000D01*
X177165000Y-135890000D02*
X177165000Y-129540000D01*
X175260000Y-112405000D02*
X173345000Y-110490000D01*
X175260000Y-127635000D02*
X175260000Y-112405000D01*
D59*
X182880000Y-113945000D02*
X182880000Y-116215000D01*
X182880000Y-116215000D02*
X180340000Y-118755000D01*
D64*
X179705000Y-126365000D02*
X181610000Y-128270000D01*
X179705000Y-118755000D02*
X179705000Y-126365000D01*
X181610000Y-128270000D02*
X181610000Y-135255000D01*
X179705000Y-119390000D02*
X180340000Y-118755000D01*
D59*
X178120000Y-102235000D02*
X178120000Y-109987500D01*
X172794998Y-102219000D02*
X178104000Y-102219000D01*
X171450000Y-99060000D02*
X171450000Y-100874002D01*
X162454000Y-87736000D02*
X162454000Y-96163114D01*
X163830000Y-86360000D02*
X162454000Y-87736000D01*
X167283114Y-96163114D02*
X169545000Y-98425000D01*
X178715000Y-100330000D02*
X178120000Y-100925000D01*
X178120000Y-100925000D02*
X178120000Y-102235000D01*
X170815000Y-98425000D02*
X171450000Y-99060000D01*
X178104000Y-102219000D02*
X178120000Y-102235000D01*
X169545000Y-98425000D02*
X170815000Y-98425000D01*
X171450000Y-100874002D02*
X172794998Y-102219000D01*
X162454000Y-96163114D02*
X167283114Y-96163114D01*
D64*
X101600000Y-57150000D02*
X102870000Y-55880000D01*
D59*
X102870000Y-49512633D02*
X102870000Y-50165000D01*
D61*
X98435000Y-58420000D02*
X101600000Y-58420000D01*
D64*
X101600000Y-58420000D02*
X101600000Y-57150000D01*
D59*
X116470970Y-41760025D02*
X116470970Y-40429337D01*
X102870000Y-50165000D02*
X108065995Y-50165000D01*
X108065995Y-50165000D02*
X116470970Y-41760025D01*
D64*
X102870000Y-55880000D02*
X102870000Y-50165000D01*
D59*
X121005000Y-138150000D02*
X121285000Y-138430000D01*
X124105000Y-130530000D02*
X121005000Y-133630000D01*
X121005000Y-134620000D02*
X121005000Y-138150000D01*
X124105000Y-129540000D02*
X124105000Y-130530000D01*
X121005000Y-133630000D02*
X121005000Y-134620000D01*
X123505000Y-126867500D02*
X123804999Y-126867500D01*
X124105000Y-134620000D02*
X124105000Y-132180000D01*
X125256000Y-131029000D02*
X124205000Y-132080000D01*
X125256000Y-128318501D02*
X125256000Y-131029000D01*
X123804999Y-126867500D02*
X125256000Y-128318501D01*
X124105000Y-132180000D02*
X124205000Y-132080000D01*
X133032347Y-123793000D02*
X146431346Y-123793000D01*
X121005000Y-121920000D02*
X121005000Y-123042500D01*
X147256000Y-119380000D02*
X144145000Y-116269000D01*
X121005000Y-123042500D02*
X122555000Y-124592500D01*
X142240000Y-111157000D02*
X142240000Y-110490000D01*
X126381000Y-119364000D02*
X131079654Y-119364000D01*
X121005000Y-121920000D02*
X122910000Y-120015000D01*
X122910000Y-120015000D02*
X125730000Y-120015000D01*
X144145000Y-116269000D02*
X144145000Y-116205000D01*
X147256000Y-122968346D02*
X147256000Y-119380000D01*
X132096000Y-120380348D02*
X132096000Y-122856654D01*
X144113000Y-116173000D02*
X144113000Y-113030000D01*
X146431346Y-123793000D02*
X147256000Y-122968346D01*
X144113000Y-113030000D02*
X142240000Y-111157000D01*
X132096000Y-122856654D02*
X133032347Y-123793000D01*
X144145000Y-116205000D02*
X144113000Y-116173000D01*
X131079654Y-119364000D02*
X132096000Y-120380348D01*
X125730000Y-120015000D02*
X126381000Y-119364000D01*
X127042929Y-137752071D02*
X126365000Y-138430000D01*
X128377054Y-131926914D02*
X128377054Y-136417946D01*
X128377054Y-136417946D02*
X126365000Y-138430000D01*
X129507929Y-130796039D02*
X128377054Y-131926914D01*
X127042929Y-135876039D02*
X127042929Y-137752071D01*
X130658929Y-132285039D02*
X129607929Y-133336039D01*
X129607929Y-135341039D02*
X130142929Y-135876039D01*
X130658929Y-129839125D02*
X130658929Y-132285039D01*
X129220000Y-128400196D02*
X130658929Y-129839125D01*
X129220000Y-126867500D02*
X129220000Y-128400196D01*
X129607929Y-133336039D02*
X129607929Y-135341039D01*
X144764000Y-110506000D02*
X144780000Y-110490000D01*
X132762695Y-124444000D02*
X146701000Y-124444000D01*
X146701000Y-124444000D02*
X147907000Y-123237999D01*
X147907000Y-119014500D02*
X144764000Y-115871500D01*
X144764000Y-115871500D02*
X144764000Y-110506000D01*
X147907000Y-123237999D02*
X147907000Y-119014500D01*
X131445000Y-120650000D02*
X131445000Y-123126308D01*
X126720000Y-121920000D02*
X126720000Y-120295000D01*
X126720000Y-120295000D02*
X127000000Y-120015000D01*
X126720000Y-121920000D02*
X126720000Y-123042500D01*
X126720000Y-123042500D02*
X128270000Y-124592500D01*
X127000000Y-120015000D02*
X130810000Y-120015000D01*
X131445000Y-123126308D02*
X132762695Y-124444000D01*
X130810000Y-120015000D02*
X131445000Y-120650000D01*
X101482500Y-91440000D02*
X102870000Y-91440000D01*
X106680000Y-87630000D02*
X106680000Y-85727384D01*
X106680000Y-85727384D02*
X108586192Y-83821192D01*
X108586192Y-83821192D02*
X109851595Y-83821192D01*
X102870000Y-91440000D02*
X106680000Y-87630000D01*
X104648000Y-87122000D02*
X104648000Y-86360000D01*
X102870000Y-88900000D02*
X104648000Y-87122000D01*
X101482500Y-88900000D02*
X102870000Y-88900000D01*
X105410000Y-104140000D02*
X102870000Y-101600000D01*
X102870000Y-101600000D02*
X101482500Y-101600000D01*
X107950000Y-104140000D02*
X105410000Y-104140000D01*
X105465000Y-64072620D02*
X107062380Y-65670000D01*
X121767380Y-65670000D02*
X122032380Y-65405000D01*
X105465000Y-63100120D02*
X105465000Y-64072620D01*
X107062380Y-65670000D02*
X121767380Y-65670000D01*
X104515000Y-59940000D02*
X104515000Y-60825120D01*
X106035000Y-58420000D02*
X104515000Y-59940000D01*
X110326000Y-57037500D02*
X113461800Y-53901700D01*
X113461800Y-48514000D02*
X113715800Y-48260000D01*
X113461800Y-53901700D02*
X113461800Y-48514000D01*
X113715800Y-48260000D02*
X117475000Y-48260000D01*
X110995000Y-62284000D02*
X121818387Y-62284000D01*
X121818387Y-62284000D02*
X123423049Y-63888662D01*
X123423049Y-67712432D02*
X121920305Y-69215176D01*
X111276000Y-59312500D02*
X111276000Y-62003000D01*
X123423049Y-63888662D02*
X123423049Y-67712432D01*
X110641000Y-61930000D02*
X110995000Y-62284000D01*
X111276000Y-62003000D02*
X110995000Y-62284000D01*
X134620000Y-48895000D02*
X130882788Y-52632212D01*
X130530000Y-60960000D02*
X127000000Y-60960000D01*
X130882788Y-52632212D02*
X130882788Y-55973210D01*
X130882788Y-55973210D02*
X127000000Y-59855998D01*
X127000000Y-60960000D02*
X127000000Y-65405000D01*
X127000000Y-59855998D02*
X127000000Y-60960000D01*
X134620000Y-52705000D02*
X134620000Y-53814284D01*
X130530000Y-57904284D02*
X130530000Y-58420000D01*
X127000000Y-69215000D02*
X127000000Y-69850000D01*
X130069000Y-62336000D02*
X128501000Y-63904000D01*
X128501000Y-63904000D02*
X128501000Y-67714000D01*
X131248002Y-62336000D02*
X130069000Y-62336000D01*
X128501000Y-67714000D02*
X127000000Y-69215000D01*
X131681000Y-59571000D02*
X131681000Y-61903002D01*
X131681000Y-61903002D02*
X131248002Y-62336000D01*
X134620000Y-53814284D02*
X130530000Y-57904284D01*
X130530000Y-58420000D02*
X131681000Y-59571000D01*
D61*
X101430000Y-114330000D02*
X101270000Y-114170000D01*
X135890000Y-81280000D02*
X121920000Y-81280000D01*
D59*
X138430000Y-48895000D02*
X138430000Y-52705000D01*
X176304000Y-123934000D02*
X177425000Y-125055000D01*
X158355000Y-129820000D02*
X159131000Y-130596000D01*
X108585000Y-122555000D02*
X108585000Y-124995000D01*
X109185000Y-121955000D02*
X108585000Y-122555000D01*
D64*
X143510000Y-140970000D02*
X144145000Y-140970000D01*
X173300551Y-140915551D02*
X173355000Y-140970000D01*
D59*
X159131000Y-130596000D02*
X159131000Y-137464800D01*
D64*
X167045000Y-108210000D02*
X169164000Y-110329000D01*
D61*
X113030000Y-71120000D02*
X113046000Y-71120000D01*
D59*
X114555000Y-132080000D02*
X114300000Y-132080000D01*
D64*
X175260000Y-130175000D02*
X175260000Y-134620000D01*
D59*
X143510000Y-129820000D02*
X142072500Y-129820000D01*
X106934000Y-126111000D02*
X106934000Y-134239000D01*
D64*
X179070000Y-128270000D02*
X177425000Y-126625000D01*
D59*
X123825000Y-140970000D02*
X123825000Y-136999966D01*
D64*
X171825000Y-118785000D02*
X173685200Y-120645200D01*
D59*
X137400000Y-129820000D02*
X138098840Y-130518840D01*
X132479000Y-57391654D02*
X137165654Y-52705000D01*
X109376000Y-60803000D02*
X107895000Y-62284000D01*
X120905000Y-132080000D02*
X120905000Y-129640000D01*
D64*
X173685200Y-120645200D02*
X173685200Y-128600200D01*
D59*
X122125000Y-113790000D02*
X122125000Y-110695000D01*
D64*
X106045000Y-140970000D02*
X108585000Y-140970000D01*
D59*
X138098840Y-135558840D02*
X138783742Y-136243742D01*
D61*
X152400000Y-77470000D02*
X148590000Y-81280000D01*
D59*
X149860000Y-137820400D02*
X149860000Y-140970000D01*
X143510000Y-129820000D02*
X144385000Y-129820000D01*
X135087500Y-129820000D02*
X134487500Y-129220000D01*
X114655000Y-127467500D02*
X115255000Y-126867500D01*
X114555000Y-132080000D02*
X113096067Y-133538933D01*
X165989000Y-130469000D02*
X165989000Y-140589000D01*
X129540000Y-65278000D02*
X132479000Y-62339000D01*
X154940000Y-137160000D02*
X154940000Y-140970000D01*
X121005000Y-129540000D02*
X121005000Y-127467500D01*
D61*
X102870000Y-62230000D02*
X102870000Y-58420000D01*
D59*
X171095000Y-118055000D02*
X171825000Y-118785000D01*
X151410000Y-129820000D02*
X152095200Y-130505200D01*
D64*
X159385000Y-140970000D02*
X164465000Y-140970000D01*
D59*
X166315000Y-108940000D02*
X167045000Y-108210000D01*
X145135600Y-130570600D02*
X145135600Y-135610600D01*
X149057500Y-129820000D02*
X148457500Y-129220000D01*
D64*
X149860000Y-140970000D02*
X154305000Y-140970000D01*
D59*
X164465000Y-129820000D02*
X163027500Y-129820000D01*
X150495000Y-129820000D02*
X149057500Y-129820000D01*
D61*
X116941600Y-81280000D02*
X111861600Y-76200000D01*
X135890000Y-81280000D02*
X135890000Y-92392500D01*
D64*
X166370000Y-140970000D02*
X173355000Y-140970000D01*
D59*
X179720001Y-109987500D02*
X177046000Y-112661501D01*
D64*
X104660000Y-114330000D02*
X101430000Y-114330000D01*
X171095000Y-115570000D02*
X171095000Y-118055000D01*
X173355000Y-140970000D02*
X173990000Y-140970000D01*
X174456543Y-140335000D02*
X177800000Y-140335000D01*
D59*
X114555000Y-132080000D02*
X114555000Y-129640000D01*
X101270000Y-114170000D02*
X101110000Y-114330000D01*
X136525000Y-129820000D02*
X137400000Y-129820000D01*
X129540000Y-69850000D02*
X129540000Y-65278000D01*
D64*
X144145000Y-140970000D02*
X148590000Y-140970000D01*
D59*
X157480000Y-129820000D02*
X158355000Y-129820000D01*
X109185000Y-119882500D02*
X109185000Y-121955000D01*
D61*
X129540000Y-69850000D02*
X129540000Y-71755000D01*
D59*
X106934000Y-134239000D02*
X108585000Y-135890000D01*
X122125000Y-110695000D02*
X121920000Y-110490000D01*
X148564600Y-136525000D02*
X149860000Y-137820400D01*
D64*
X164465000Y-140970000D02*
X164465000Y-138430000D01*
D59*
X136525000Y-129820000D02*
X135087500Y-129820000D01*
D64*
X169164000Y-110329000D02*
X169164000Y-114274000D01*
D59*
X145135600Y-135610600D02*
X146050000Y-136525000D01*
X152095200Y-134315200D02*
X154940000Y-137160000D01*
X121005000Y-127467500D02*
X121605000Y-126867500D01*
D13*
X101955000Y-130710000D02*
X101855000Y-130810000D01*
D59*
X108585000Y-135890000D02*
X108585000Y-140970000D01*
X177046000Y-114150000D02*
X176304000Y-114892000D01*
X120905000Y-129640000D02*
X121005000Y-129540000D01*
X152095200Y-130505200D02*
X152095200Y-134315200D01*
D61*
X103962380Y-75387380D02*
X104775000Y-76200000D01*
D59*
X142072500Y-129820000D02*
X141472500Y-129220000D01*
X126307929Y-134517037D02*
X126307929Y-133336039D01*
X120905000Y-132080000D02*
X119380000Y-133605000D01*
D61*
X148590000Y-81280000D02*
X135890000Y-81280000D01*
D59*
X108485000Y-125095000D02*
X107950000Y-125095000D01*
D64*
X119380000Y-140970000D02*
X123825000Y-140970000D01*
D59*
X150495000Y-129820000D02*
X151410000Y-129820000D01*
X107950000Y-125095000D02*
X106934000Y-126111000D01*
D64*
X113665000Y-140970000D02*
X119380000Y-140970000D01*
D59*
X164465000Y-129820000D02*
X165340000Y-129820000D01*
X161272142Y-76200000D02*
X158750000Y-76200000D01*
D61*
X103962380Y-65670000D02*
X103962380Y-63497500D01*
D64*
X108585000Y-140970000D02*
X113665000Y-140970000D01*
D61*
X121920000Y-81280000D02*
X116941600Y-81280000D01*
X113046000Y-71120000D02*
X114300000Y-72374000D01*
X104775000Y-76200000D02*
X110490000Y-76200000D01*
X109376000Y-57941000D02*
X109376000Y-59312500D01*
D64*
X173990000Y-140801543D02*
X174456543Y-140335000D01*
D61*
X129540000Y-71755000D02*
X128921000Y-72374000D01*
D59*
X144385000Y-129820000D02*
X145135600Y-130570600D01*
D64*
X173990000Y-140970000D02*
X173990000Y-140801543D01*
D13*
X101955000Y-128097500D02*
X101955000Y-128270000D01*
D59*
X156042500Y-129820000D02*
X155442500Y-129220000D01*
D64*
X154940000Y-140970000D02*
X159385000Y-140970000D01*
D59*
X102555000Y-125597500D02*
X102555000Y-127670000D01*
X126307929Y-133336039D02*
X126307929Y-130896039D01*
X109376000Y-59312500D02*
X109376000Y-60803000D01*
D61*
X103962380Y-63497500D02*
X103565000Y-63100120D01*
X111861600Y-76200000D02*
X110490000Y-76200000D01*
X103565000Y-62925000D02*
X102870000Y-62230000D01*
D59*
X126307929Y-130896039D02*
X126407929Y-130796039D01*
X176304000Y-114892000D02*
X176304000Y-123934000D01*
D64*
X173685200Y-128600200D02*
X175260000Y-130175000D01*
D59*
X126407929Y-127779571D02*
X126407929Y-130796039D01*
X113096067Y-133538933D02*
X113096067Y-140401067D01*
D64*
X169164000Y-114274000D02*
X170460000Y-115570000D01*
D59*
X165340000Y-129820000D02*
X165989000Y-130469000D01*
D61*
X157480000Y-77470000D02*
X152400000Y-77470000D01*
D59*
X123825000Y-136999966D02*
X126307929Y-134517037D01*
D64*
X175260000Y-134620000D02*
X173300551Y-136579449D01*
D59*
X138783742Y-136243742D02*
X141958742Y-136243742D01*
D64*
X177800000Y-140335000D02*
X179070000Y-139065000D01*
D59*
X163830000Y-108940000D02*
X166315000Y-108940000D01*
X108585000Y-124995000D02*
X108485000Y-125095000D01*
X146050000Y-136525000D02*
X148564600Y-136525000D01*
D61*
X103962380Y-65670000D02*
X103962380Y-70485000D01*
D59*
X97790000Y-50165000D02*
X97790000Y-49500421D01*
X138098840Y-130518840D02*
X138098840Y-135558840D01*
D61*
X103962380Y-70485000D02*
X103962380Y-75387380D01*
X113030000Y-71120000D02*
X112395000Y-70485000D01*
D59*
X163027500Y-129820000D02*
X162427500Y-129220000D01*
D61*
X158750000Y-76200000D02*
X157480000Y-77470000D01*
D59*
X165989000Y-140589000D02*
X166370000Y-140970000D01*
X119380000Y-133605000D02*
X119380000Y-140970000D01*
D64*
X154305000Y-140970000D02*
X154940000Y-140970000D01*
D59*
X159131000Y-140716000D02*
X159385000Y-140970000D01*
D65*
X179070000Y-139065000D02*
X179070000Y-137287000D01*
D61*
X112395000Y-70485000D02*
X103962380Y-70485000D01*
D59*
X127320000Y-126867500D02*
X126407929Y-127779571D01*
D64*
X173300551Y-136579449D02*
X173300551Y-140915551D01*
D61*
X103565000Y-63100120D02*
X103565000Y-62925000D01*
D59*
X177046000Y-112661501D02*
X177046000Y-114150000D01*
X159131000Y-137464800D02*
X159385000Y-137718800D01*
X141958742Y-136243742D02*
X144145000Y-138430000D01*
X102555000Y-125597500D02*
X98372310Y-125597500D01*
D13*
X101955000Y-128270000D02*
X101955000Y-130710000D01*
D59*
X159385000Y-137718800D02*
X159385000Y-140970000D01*
D61*
X102870000Y-58420000D02*
X105410000Y-55880000D01*
D64*
X148590000Y-140970000D02*
X149860000Y-140970000D01*
D59*
X137165654Y-52705000D02*
X138430000Y-52705000D01*
D61*
X121920000Y-110490000D02*
X121920000Y-81280000D01*
D59*
X98372310Y-125597500D02*
X97102310Y-126867500D01*
D64*
X123825000Y-140970000D02*
X143510000Y-140970000D01*
D59*
X114555000Y-129640000D02*
X114655000Y-129540000D01*
X144145000Y-138430000D02*
X144145000Y-140970000D01*
X102555000Y-127670000D02*
X101955000Y-128270000D01*
X180020000Y-109987500D02*
X179720001Y-109987500D01*
X148821000Y-140739000D02*
X148590000Y-140970000D01*
X157480000Y-129820000D02*
X156042500Y-129820000D01*
D64*
X179070000Y-128270000D02*
X179070000Y-139065000D01*
X164465000Y-140970000D02*
X166370000Y-140970000D01*
D59*
X132479000Y-62339000D02*
X132479000Y-57391654D01*
D61*
X107315000Y-55880000D02*
X109376000Y-57941000D01*
D59*
X113096067Y-140401067D02*
X113665000Y-140970000D01*
D64*
X177425000Y-126625000D02*
X177425000Y-125055000D01*
D61*
X104820000Y-114170000D02*
X104660000Y-114330000D01*
X105410000Y-55880000D02*
X107315000Y-55880000D01*
D59*
X114655000Y-129540000D02*
X114655000Y-127467500D01*
D61*
X128921000Y-72374000D02*
X114300000Y-72374000D01*
D59*
X102235000Y-93980000D02*
X101482500Y-93980000D01*
X107950000Y-88265000D02*
X102235000Y-93980000D01*
X108585000Y-86360000D02*
X107950000Y-86995000D01*
X109855000Y-86360000D02*
X108585000Y-86360000D01*
X107950000Y-86995000D02*
X107950000Y-88265000D01*
X102311200Y-96520000D02*
X101482500Y-96520000D01*
X109855000Y-88900000D02*
X109220000Y-88900000D01*
X102117500Y-95885000D02*
X101482500Y-96520000D01*
X109220000Y-88900000D02*
X103301800Y-94818200D01*
X103301800Y-94818200D02*
X103301800Y-95529400D01*
X103301800Y-95529400D02*
X102311200Y-96520000D01*
X108423000Y-91440000D02*
X103657400Y-96205600D01*
X109855000Y-91440000D02*
X108423000Y-91440000D01*
X103657400Y-96205600D02*
X103657400Y-98704400D01*
X103657400Y-98704400D02*
X103301800Y-99060000D01*
X103301800Y-99060000D02*
X101482500Y-99060000D01*
X107315000Y-78740000D02*
X109855000Y-78740000D01*
X98942500Y-86360000D02*
X98942500Y-85385300D01*
X98942500Y-85385300D02*
X101142800Y-83185000D01*
X101142800Y-83185000D02*
X102870000Y-83185000D01*
X102870000Y-83185000D02*
X107315000Y-78740000D01*
X101482500Y-86360000D02*
X106562500Y-81280000D01*
X106562500Y-81280000D02*
X109855000Y-81280000D01*
M02*
