G04 #@! TF.GenerationSoftware,KiCad,Pcbnew,9.0.1*
G04 #@! TF.CreationDate,2025-09-16T21:45:55+03:00*
G04 #@! TF.ProjectId,v1,76312e6b-6963-4616-945f-706362585858,rev?*
G04 #@! TF.SameCoordinates,Original*
G04 #@! TF.FileFunction,Paste,Bot*
G04 #@! TF.FilePolarity,Positive*
%FSLAX46Y46*%
G04 Gerber Fmt 4.6, Leading zero omitted, Abs format (unit mm)*
G04 Created by KiCad (PCBNEW 9.0.1) date 2025-09-16 21:45:55*
%MOMM*%
%LPD*%
G01*
G04 APERTURE LIST*
G04 Aperture macros list*
%AMRoundRect*
0 Rectangle with rounded corners*
0 $1 Rounding radius*
0 $2 $3 $4 $5 $6 $7 $8 $9 X,Y pos of 4 corners*
0 Add a 4 corners polygon primitive as box body*
4,1,4,$2,$3,$4,$5,$6,$7,$8,$9,$2,$3,0*
0 Add four circle primitives for the rounded corners*
1,1,$1+$1,$2,$3*
1,1,$1+$1,$4,$5*
1,1,$1+$1,$6,$7*
1,1,$1+$1,$8,$9*
0 Add four rect primitives between the rounded corners*
20,1,$1+$1,$2,$3,$4,$5,0*
20,1,$1+$1,$4,$5,$6,$7,0*
20,1,$1+$1,$6,$7,$8,$9,0*
20,1,$1+$1,$8,$9,$2,$3,0*%
G04 Aperture macros list end*
%ADD10RoundRect,0.200000X0.200000X-0.750000X0.200000X0.750000X-0.200000X0.750000X-0.200000X-0.750000X0*%
%ADD11RoundRect,0.250000X0.450000X-0.262500X0.450000X0.262500X-0.450000X0.262500X-0.450000X-0.262500X0*%
%ADD12RoundRect,0.250000X0.625000X-0.312500X0.625000X0.312500X-0.625000X0.312500X-0.625000X-0.312500X0*%
%ADD13RoundRect,0.250000X-1.125000X1.275000X-1.125000X-1.275000X1.125000X-1.275000X1.125000X1.275000X0*%
%ADD14RoundRect,0.250000X-0.350000X0.850000X-0.350000X-0.850000X0.350000X-0.850000X0.350000X0.850000X0*%
%ADD15RoundRect,0.250000X-1.275000X-1.125000X1.275000X-1.125000X1.275000X1.125000X-1.275000X1.125000X0*%
%ADD16RoundRect,0.250000X-0.850000X-0.350000X0.850000X-0.350000X0.850000X0.350000X-0.850000X0.350000X0*%
%ADD17RoundRect,0.250000X1.125000X-1.275000X1.125000X1.275000X-1.125000X1.275000X-1.125000X-1.275000X0*%
%ADD18RoundRect,0.250000X0.350000X-0.850000X0.350000X0.850000X-0.350000X0.850000X-0.350000X-0.850000X0*%
%ADD19RoundRect,0.250000X-0.400000X-0.625000X0.400000X-0.625000X0.400000X0.625000X-0.400000X0.625000X0*%
%ADD20RoundRect,0.150000X0.512500X0.150000X-0.512500X0.150000X-0.512500X-0.150000X0.512500X-0.150000X0*%
%ADD21RoundRect,0.250000X-0.650000X0.325000X-0.650000X-0.325000X0.650000X-0.325000X0.650000X0.325000X0*%
%ADD22RoundRect,0.250000X0.400000X0.625000X-0.400000X0.625000X-0.400000X-0.625000X0.400000X-0.625000X0*%
%ADD23RoundRect,0.250000X0.625000X-0.400000X0.625000X0.400000X-0.625000X0.400000X-0.625000X-0.400000X0*%
%ADD24RoundRect,0.250000X0.312500X0.625000X-0.312500X0.625000X-0.312500X-0.625000X0.312500X-0.625000X0*%
%ADD25RoundRect,0.150000X-0.150000X0.512500X-0.150000X-0.512500X0.150000X-0.512500X0.150000X0.512500X0*%
%ADD26RoundRect,0.250000X-0.312500X-0.625000X0.312500X-0.625000X0.312500X0.625000X-0.312500X0.625000X0*%
%ADD27RoundRect,0.225000X0.225000X0.375000X-0.225000X0.375000X-0.225000X-0.375000X0.225000X-0.375000X0*%
%ADD28RoundRect,0.150000X0.150000X-0.512500X0.150000X0.512500X-0.150000X0.512500X-0.150000X-0.512500X0*%
%ADD29RoundRect,0.250000X-0.625000X0.400000X-0.625000X-0.400000X0.625000X-0.400000X0.625000X0.400000X0*%
%ADD30RoundRect,0.250000X0.262500X0.450000X-0.262500X0.450000X-0.262500X-0.450000X0.262500X-0.450000X0*%
%ADD31RoundRect,0.250000X-0.262500X-0.450000X0.262500X-0.450000X0.262500X0.450000X-0.262500X0.450000X0*%
%ADD32RoundRect,0.375000X-0.625000X-0.375000X0.625000X-0.375000X0.625000X0.375000X-0.625000X0.375000X0*%
%ADD33RoundRect,0.500000X-0.500000X-1.400000X0.500000X-1.400000X0.500000X1.400000X-0.500000X1.400000X0*%
%ADD34RoundRect,0.250000X0.325000X0.650000X-0.325000X0.650000X-0.325000X-0.650000X0.325000X-0.650000X0*%
%ADD35RoundRect,0.250000X-0.325000X-0.650000X0.325000X-0.650000X0.325000X0.650000X-0.325000X0.650000X0*%
G04 APERTURE END LIST*
D10*
X114619300Y-57123200D03*
X113669300Y-60123200D03*
X115569300Y-60123200D03*
X156032200Y-120420000D03*
X155082200Y-123420000D03*
X156982200Y-123420000D03*
D11*
X158750000Y-115847500D03*
X158750000Y-114022500D03*
X158750000Y-108227500D03*
X158750000Y-106402500D03*
D12*
X117221750Y-118110000D03*
X117221750Y-115185000D03*
D11*
X153676074Y-120565358D03*
X153676074Y-118740358D03*
X158750000Y-112037500D03*
X158750000Y-110212500D03*
D10*
X125701750Y-117340878D03*
X123801750Y-117340878D03*
X124751750Y-114340878D03*
X138295000Y-117825000D03*
X136395000Y-117825000D03*
X137345000Y-114825000D03*
X157033000Y-117857400D03*
X155133000Y-117857400D03*
X156083000Y-114857400D03*
X152080000Y-57697500D03*
X150180000Y-57697500D03*
X151130000Y-54697500D03*
X147635000Y-57634000D03*
X145735000Y-57634000D03*
X146685000Y-54634000D03*
D13*
X171015500Y-122726000D03*
X167965500Y-122726000D03*
X171015500Y-126076000D03*
X167965500Y-126076000D03*
D14*
X167210500Y-118101000D03*
X171770500Y-118101000D03*
D15*
X171670000Y-108965000D03*
X171670000Y-112015000D03*
X175020000Y-108965000D03*
X175020000Y-112015000D03*
D16*
X167045000Y-112770000D03*
X167045000Y-108210000D03*
D17*
X178180000Y-120430000D03*
X181230000Y-120430000D03*
X178180000Y-117080000D03*
X181230000Y-117080000D03*
D18*
X181985000Y-125055000D03*
X177425000Y-125055000D03*
D11*
X127000000Y-54967500D03*
X125095000Y-54967500D03*
X127000000Y-56792500D03*
X125095000Y-56792500D03*
D19*
X96875000Y-121920000D03*
X99975000Y-121920000D03*
D11*
X149225000Y-61872500D03*
X149225000Y-60047500D03*
D12*
X131191750Y-116840000D03*
X131191750Y-113915000D03*
D11*
X156210000Y-61872500D03*
X156210000Y-60047500D03*
D12*
X141351750Y-116840000D03*
X141351750Y-113915000D03*
X154686750Y-52070000D03*
X154686750Y-49145000D03*
D20*
X141472500Y-127320000D03*
X141472500Y-129220000D03*
X139197500Y-128270000D03*
D11*
X178562000Y-69723000D03*
X178562000Y-67898000D03*
D12*
X114681750Y-118110000D03*
X114681750Y-115185000D03*
D21*
X106465000Y-72725000D03*
X106465000Y-75675000D03*
D11*
X163830000Y-70762500D03*
X163830000Y-68937500D03*
D22*
X133630000Y-58420000D03*
X130530000Y-58420000D03*
D20*
X134487500Y-127320000D03*
X134487500Y-129220000D03*
X132212500Y-128270000D03*
D10*
X176234000Y-52935000D03*
X174334000Y-52935000D03*
X175284000Y-49935000D03*
D11*
X179070000Y-94892500D03*
X179070000Y-93067500D03*
X163195000Y-56157500D03*
X163195000Y-54332500D03*
D12*
X133731750Y-116840000D03*
X133731750Y-113915000D03*
D23*
X150495000Y-129820000D03*
X150495000Y-126720000D03*
D11*
X154305000Y-66317500D03*
X154305000Y-64492500D03*
D10*
X140650000Y-61190000D03*
X138750000Y-61190000D03*
X139700000Y-58190000D03*
D23*
X143510000Y-129820000D03*
X143510000Y-126720000D03*
D11*
X161925000Y-61872500D03*
X161925000Y-60047500D03*
D21*
X101110000Y-111380000D03*
X101110000Y-114330000D03*
D19*
X115290000Y-121920000D03*
X118390000Y-121920000D03*
D24*
X108585000Y-68833250D03*
X105660000Y-68833250D03*
D25*
X178120000Y-109987500D03*
X180020000Y-109987500D03*
X179070000Y-112262500D03*
D11*
X165100000Y-56157500D03*
X165100000Y-54332500D03*
D22*
X124105000Y-134620000D03*
X121005000Y-134620000D03*
D26*
X135890000Y-120396750D03*
X138815000Y-120396750D03*
D22*
X111685000Y-127254000D03*
X108585000Y-127254000D03*
D10*
X181290000Y-52935000D03*
X179390000Y-52935000D03*
X180340000Y-49935000D03*
D19*
X101955000Y-118110000D03*
X105055000Y-118110000D03*
D22*
X105055000Y-133350000D03*
X101955000Y-133350000D03*
X150775000Y-132080000D03*
X147675000Y-132080000D03*
D12*
X141986750Y-57150000D03*
X141986750Y-54225000D03*
D19*
X147675000Y-134620000D03*
X150775000Y-134620000D03*
D12*
X144526750Y-52070000D03*
X144526750Y-49145000D03*
D11*
X121285000Y-52982500D03*
X121285000Y-51157500D03*
X121285000Y-60602500D03*
X121285000Y-58777500D03*
X156210000Y-66317500D03*
X156210000Y-64492500D03*
D27*
X124205000Y-132080000D03*
X120905000Y-132080000D03*
D11*
X123190000Y-52982500D03*
X123190000Y-51157500D03*
D28*
X129220000Y-126867500D03*
X127320000Y-126867500D03*
X128270000Y-124592500D03*
D11*
X125095000Y-60602500D03*
X125095000Y-58777500D03*
X151130000Y-61872500D03*
X151130000Y-60047500D03*
D22*
X133630000Y-60960000D03*
X130530000Y-60960000D03*
D23*
X163830000Y-118745000D03*
X163830000Y-115645000D03*
D11*
X161290000Y-56157500D03*
X161290000Y-54332500D03*
D27*
X117855000Y-132080000D03*
X114555000Y-132080000D03*
D11*
X117475000Y-56792500D03*
X117475000Y-54967500D03*
D28*
X111085000Y-119882500D03*
X109185000Y-119882500D03*
X110135000Y-117607500D03*
D22*
X170460000Y-115443000D03*
X167360000Y-115443000D03*
X178715000Y-100330000D03*
X175615000Y-100330000D03*
D11*
X174752000Y-69723000D03*
X174752000Y-67898000D03*
D27*
X111785000Y-124968000D03*
X108485000Y-124968000D03*
D17*
X168655000Y-60740000D03*
X171705000Y-60740000D03*
X168655000Y-57390000D03*
X171705000Y-57390000D03*
D18*
X172460000Y-65365000D03*
X170180000Y-65365000D03*
X167900000Y-65365000D03*
D22*
X157760000Y-132080000D03*
X154660000Y-132080000D03*
D12*
X128651750Y-116840000D03*
X128651750Y-113915000D03*
D29*
X163830000Y-108940000D03*
X163830000Y-112040000D03*
D11*
X169164000Y-69723000D03*
X169164000Y-67898000D03*
X157480000Y-56157500D03*
X157480000Y-54332500D03*
X159385000Y-56157500D03*
X159385000Y-54332500D03*
D29*
X97155000Y-134620000D03*
X97155000Y-137720000D03*
D20*
X162427500Y-127320000D03*
X162427500Y-129220000D03*
X160152500Y-128270000D03*
D12*
X152146750Y-52070000D03*
X152146750Y-49145000D03*
D23*
X164465000Y-129820000D03*
X164465000Y-126720000D03*
X136525000Y-129820000D03*
X136525000Y-126720000D03*
X182880000Y-113945000D03*
X182880000Y-110845000D03*
D11*
X121285000Y-56792500D03*
X121285000Y-54967500D03*
X123190000Y-56792500D03*
X123190000Y-54967500D03*
X154305000Y-61872500D03*
X154305000Y-60047500D03*
D30*
X176807500Y-97155000D03*
X174982500Y-97155000D03*
D11*
X100965000Y-70762500D03*
X100965000Y-68937500D03*
D12*
X147066750Y-52070000D03*
X147066750Y-49145000D03*
D31*
X122912500Y-48895000D03*
X124737500Y-48895000D03*
D20*
X148457500Y-127320000D03*
X148457500Y-129220000D03*
X146182500Y-128270000D03*
D11*
X176657000Y-69723000D03*
X176657000Y-67898000D03*
D32*
X105455000Y-114170000D03*
X105455000Y-111870000D03*
D33*
X111755000Y-111870000D03*
D32*
X105455000Y-109570000D03*
D11*
X180467000Y-69723000D03*
X180467000Y-67898000D03*
D34*
X132545760Y-65465695D03*
X129595760Y-65465695D03*
D10*
X182560000Y-59285000D03*
X180660000Y-59285000D03*
X181610000Y-56285000D03*
D28*
X123505000Y-126867500D03*
X121605000Y-126867500D03*
X122555000Y-124592500D03*
D19*
X101955000Y-120650000D03*
X105055000Y-120650000D03*
D11*
X180975000Y-94892500D03*
X180975000Y-93067500D03*
D22*
X143790000Y-132080000D03*
X140690000Y-132080000D03*
D27*
X105155000Y-130810000D03*
X101855000Y-130810000D03*
D28*
X105465000Y-63100120D03*
X103565000Y-63100120D03*
X104515000Y-60825120D03*
D11*
X119380000Y-56792500D03*
X119380000Y-54967500D03*
D30*
X180617500Y-97155000D03*
X178792500Y-97155000D03*
D19*
X169900000Y-100330000D03*
X173000000Y-100330000D03*
D11*
X159943800Y-51077500D03*
X159943800Y-49252500D03*
D22*
X129507929Y-130796039D03*
X126407929Y-130796039D03*
X117755000Y-134620000D03*
X114655000Y-134620000D03*
D27*
X129607929Y-133336039D03*
X126307929Y-133336039D03*
D12*
X149606750Y-52070000D03*
X149606750Y-49145000D03*
D19*
X133780000Y-134620000D03*
X136880000Y-134620000D03*
D11*
X99060000Y-66952500D03*
X99060000Y-65127500D03*
D22*
X105055000Y-128270000D03*
X101955000Y-128270000D03*
D11*
X158115000Y-61872500D03*
X158115000Y-60047500D03*
D20*
X155442500Y-127320000D03*
X155442500Y-129220000D03*
X153167500Y-128270000D03*
D11*
X99060000Y-74572500D03*
X99060000Y-72747500D03*
D19*
X140690000Y-134620000D03*
X143790000Y-134620000D03*
D11*
X99060000Y-70762500D03*
X99060000Y-68937500D03*
D31*
X126722500Y-48895000D03*
X128547500Y-48895000D03*
D19*
X126720000Y-121920000D03*
X129820000Y-121920000D03*
D35*
X119175000Y-113790000D03*
X122125000Y-113790000D03*
D11*
X160020000Y-70762500D03*
X160020000Y-68937500D03*
X161925000Y-66317500D03*
X161925000Y-64492500D03*
X158115000Y-66317500D03*
X158115000Y-64492500D03*
X182372000Y-69723000D03*
X182372000Y-67898000D03*
X117475000Y-52982500D03*
X117475000Y-51157500D03*
X100965000Y-66952500D03*
X100965000Y-65127500D03*
X145415000Y-61872500D03*
X145415000Y-60047500D03*
X123190000Y-60602500D03*
X123190000Y-58777500D03*
X147320000Y-61872500D03*
X147320000Y-60047500D03*
X161848800Y-51077500D03*
X161848800Y-49252500D03*
D27*
X99440000Y-132080000D03*
X96140000Y-132080000D03*
D11*
X143510000Y-61872500D03*
X143510000Y-60047500D03*
X128905000Y-52982500D03*
X128905000Y-51157500D03*
D22*
X173635000Y-104775000D03*
X170535000Y-104775000D03*
D19*
X121005000Y-121920000D03*
X124105000Y-121920000D03*
D12*
X141986750Y-52070000D03*
X141986750Y-49145000D03*
D11*
X171069000Y-69723000D03*
X171069000Y-67898000D03*
D24*
X113665000Y-68833250D03*
X110740000Y-68833250D03*
D11*
X177165000Y-94892500D03*
X177165000Y-93067500D03*
D28*
X117155000Y-126867500D03*
X115255000Y-126867500D03*
X116205000Y-124592500D03*
D11*
X172847000Y-69723000D03*
X172847000Y-67898000D03*
D22*
X164491000Y-132080000D03*
X161391000Y-132080000D03*
D11*
X161925000Y-70762500D03*
X161925000Y-68937500D03*
X100965000Y-74572500D03*
X100965000Y-72747500D03*
X127000000Y-52982500D03*
X127000000Y-51157500D03*
D12*
X154686750Y-57150000D03*
X154686750Y-54225000D03*
D22*
X130142929Y-135876039D03*
X127042929Y-135876039D03*
D11*
X160020000Y-66317500D03*
X160020000Y-64492500D03*
D26*
X141605000Y-120396750D03*
X144530000Y-120396750D03*
D22*
X107062380Y-65670000D03*
X103962380Y-65670000D03*
D19*
X154660000Y-134620000D03*
X157760000Y-134620000D03*
D11*
X115570000Y-52982500D03*
X115570000Y-51157500D03*
D34*
X164222142Y-76200000D03*
X161272142Y-76200000D03*
D22*
X111685000Y-122555000D03*
X108585000Y-122555000D03*
X167920000Y-104775000D03*
X164820000Y-104775000D03*
D11*
X119380000Y-52982500D03*
X119380000Y-51157500D03*
D23*
X182880000Y-106960000D03*
X182880000Y-103860000D03*
D24*
X118745000Y-68833250D03*
X115820000Y-68833250D03*
D19*
X161391000Y-134620000D03*
X164491000Y-134620000D03*
D28*
X111276000Y-59312500D03*
X109376000Y-59312500D03*
X110326000Y-57037500D03*
D22*
X110995000Y-62284000D03*
X107895000Y-62284000D03*
X124105000Y-129540000D03*
X121005000Y-129540000D03*
D23*
X163830000Y-124105000D03*
X163830000Y-121005000D03*
D28*
X98740000Y-126867500D03*
X96840000Y-126867500D03*
X97790000Y-124592500D03*
D22*
X179350000Y-104775000D03*
X176250000Y-104775000D03*
D11*
X175260000Y-94892500D03*
X175260000Y-93067500D03*
D31*
X130532500Y-48895000D03*
X132357500Y-48895000D03*
D23*
X157480000Y-129820000D03*
X157480000Y-126720000D03*
D11*
X125095000Y-52982500D03*
X125095000Y-51157500D03*
X119380000Y-60602500D03*
X119380000Y-58777500D03*
D22*
X136880000Y-132080000D03*
X133780000Y-132080000D03*
D28*
X104455000Y-125597500D03*
X102555000Y-125597500D03*
X103505000Y-123322500D03*
D22*
X117755000Y-129540000D03*
X114655000Y-129540000D03*
D11*
X160020000Y-61872500D03*
X160020000Y-60047500D03*
D19*
X96875000Y-129540000D03*
X99975000Y-129540000D03*
M02*
