G04 #@! TF.GenerationSoftware,KiCad,Pcbnew,9.0.1*
G04 #@! TF.CreationDate,2025-09-16T21:45:56+03:00*
G04 #@! TF.ProjectId,v1,76312e6b-6963-4616-945f-706362585858,rev?*
G04 #@! TF.SameCoordinates,Original*
G04 #@! TF.FileFunction,Profile,NP*
%FSLAX46Y46*%
G04 Gerber Fmt 4.6, Leading zero omitted, Abs format (unit mm)*
G04 Created by KiCad (PCBNEW 9.0.1) date 2025-09-16 21:45:56*
%MOMM*%
%LPD*%
G01*
G04 APERTURE LIST*
G04 #@! TA.AperFunction,Profile*
%ADD10C,0.050000*%
G04 #@! TD*
G04 APERTURE END LIST*
D10*
X104470200Y-148640800D02*
X104495600Y-141224000D01*
X104495600Y-141224000D02*
X94615000Y-141224000D01*
X122936000Y-37846000D02*
X122936000Y-46863000D01*
X122936000Y-46863000D02*
X184785000Y-46863000D01*
X102647500Y-80010000D02*
G75*
G02*
X98647500Y-80010000I-2000000J0D01*
G01*
X98647500Y-80010000D02*
G75*
G02*
X102647500Y-80010000I2000000J0D01*
G01*
X94615000Y-46863000D02*
X103632000Y-46863000D01*
X155440000Y-101600000D02*
G75*
G02*
X154440000Y-101600000I-500000J0D01*
G01*
X154440000Y-101600000D02*
G75*
G02*
X155440000Y-101600000I500000J0D01*
G01*
X132572000Y-76200000D02*
G75*
G02*
X131572000Y-76200000I-500000J0D01*
G01*
X131572000Y-76200000D02*
G75*
G02*
X132572000Y-76200000I500000J0D01*
G01*
X111950000Y-131580000D02*
G75*
G02*
X108950000Y-131580000I-1500000J0D01*
G01*
X108950000Y-131580000D02*
G75*
G02*
X111950000Y-131580000I1500000J0D01*
G01*
X152900000Y-101600000D02*
G75*
G02*
X151900000Y-101600000I-500000J0D01*
G01*
X151900000Y-101600000D02*
G75*
G02*
X152900000Y-101600000I500000J0D01*
G01*
X94615000Y-141224000D02*
X94615000Y-46863000D01*
X170450000Y-131580000D02*
G75*
G02*
X167450000Y-131580000I-1500000J0D01*
G01*
X167450000Y-131580000D02*
G75*
G02*
X170450000Y-131580000I1500000J0D01*
G01*
X103632000Y-46863000D02*
X103632000Y-37846000D01*
X174904400Y-148640800D02*
X104470200Y-148640800D01*
X135120000Y-73660000D02*
G75*
G02*
X134120000Y-73660000I-500000J0D01*
G01*
X134120000Y-73660000D02*
G75*
G02*
X135120000Y-73660000I500000J0D01*
G01*
X170450000Y-52070000D02*
G75*
G02*
X167450000Y-52070000I-1500000J0D01*
G01*
X167450000Y-52070000D02*
G75*
G02*
X170450000Y-52070000I1500000J0D01*
G01*
X184785000Y-46863000D02*
X184785000Y-141224000D01*
X174904400Y-141224000D02*
X174904400Y-148640800D01*
X167608000Y-99568000D02*
G75*
G02*
X163608000Y-99568000I-2000000J0D01*
G01*
X163608000Y-99568000D02*
G75*
G02*
X167608000Y-99568000I2000000J0D01*
G01*
X111950000Y-52070000D02*
G75*
G02*
X108950000Y-52070000I-1500000J0D01*
G01*
X108950000Y-52070000D02*
G75*
G02*
X111950000Y-52070000I1500000J0D01*
G01*
X103632000Y-37846000D02*
X122936000Y-37846000D01*
X119880000Y-76200000D02*
G75*
G02*
X118880000Y-76200000I-500000J0D01*
G01*
X118880000Y-76200000D02*
G75*
G02*
X119880000Y-76200000I500000J0D01*
G01*
X184785000Y-141224000D02*
X174904400Y-141224000D01*
X119872000Y-73660000D02*
G75*
G02*
X118872000Y-73660000I-500000J0D01*
G01*
X118872000Y-73660000D02*
G75*
G02*
X119872000Y-73660000I500000J0D01*
G01*
M02*
