G04 #@! TF.GenerationSoftware,KiCad,Pcbnew,9.0.1*
G04 #@! TF.CreationDate,2025-09-16T21:45:55+03:00*
G04 #@! TF.ProjectId,v1,76312e6b-6963-4616-945f-706362585858,rev?*
G04 #@! TF.SameCoordinates,Original*
G04 #@! TF.FileFunction,Paste,Top*
G04 #@! TF.FilePolarity,Positive*
%FSLAX46Y46*%
G04 Gerber Fmt 4.6, Leading zero omitted, Abs format (unit mm)*
G04 Created by KiCad (PCBNEW 9.0.1) date 2025-09-16 21:45:55*
%MOMM*%
%LPD*%
G01*
G04 APERTURE LIST*
G04 Aperture macros list*
%AMRoundRect*
0 Rectangle with rounded corners*
0 $1 Rounding radius*
0 $2 $3 $4 $5 $6 $7 $8 $9 X,Y pos of 4 corners*
0 Add a 4 corners polygon primitive as box body*
4,1,4,$2,$3,$4,$5,$6,$7,$8,$9,$2,$3,0*
0 Add four circle primitives for the rounded corners*
1,1,$1+$1,$2,$3*
1,1,$1+$1,$4,$5*
1,1,$1+$1,$6,$7*
1,1,$1+$1,$8,$9*
0 Add four rect primitives between the rounded corners*
20,1,$1+$1,$2,$3,$4,$5,0*
20,1,$1+$1,$4,$5,$6,$7,0*
20,1,$1+$1,$6,$7,$8,$9,0*
20,1,$1+$1,$8,$9,$2,$3,0*%
G04 Aperture macros list end*
%ADD10R,1.200000X1.200000*%
%ADD11R,1.600000X1.500000*%
%ADD12R,1.500000X1.600000*%
%ADD13RoundRect,0.250000X0.625000X-0.312500X0.625000X0.312500X-0.625000X0.312500X-0.625000X-0.312500X0*%
%ADD14RoundRect,0.250000X0.262500X0.450000X-0.262500X0.450000X-0.262500X-0.450000X0.262500X-0.450000X0*%
%ADD15RoundRect,0.250000X0.450000X-0.262500X0.450000X0.262500X-0.450000X0.262500X-0.450000X-0.262500X0*%
%ADD16RoundRect,0.250000X0.312500X0.625000X-0.312500X0.625000X-0.312500X-0.625000X0.312500X-0.625000X0*%
%ADD17RoundRect,0.250000X0.625000X-0.400000X0.625000X0.400000X-0.625000X0.400000X-0.625000X-0.400000X0*%
%ADD18RoundRect,0.150000X-0.200000X-0.150000X0.200000X-0.150000X0.200000X0.150000X-0.200000X0.150000X0*%
%ADD19RoundRect,0.175000X-0.175000X-0.325000X0.175000X-0.325000X0.175000X0.325000X-0.175000X0.325000X0*%
%ADD20RoundRect,0.200000X0.200000X-0.750000X0.200000X0.750000X-0.200000X0.750000X-0.200000X-0.750000X0*%
%ADD21RoundRect,0.150000X-0.150000X0.825000X-0.150000X-0.825000X0.150000X-0.825000X0.150000X0.825000X0*%
%ADD22RoundRect,0.150000X-0.825000X-0.150000X0.825000X-0.150000X0.825000X0.150000X-0.825000X0.150000X0*%
%ADD23RoundRect,0.250000X-0.400000X-0.625000X0.400000X-0.625000X0.400000X0.625000X-0.400000X0.625000X0*%
%ADD24RoundRect,0.250000X0.325000X0.650000X-0.325000X0.650000X-0.325000X-0.650000X0.325000X-0.650000X0*%
%ADD25RoundRect,0.250000X-0.650000X0.325000X-0.650000X-0.325000X0.650000X-0.325000X0.650000X0.325000X0*%
%ADD26RoundRect,0.250000X0.400000X0.625000X-0.400000X0.625000X-0.400000X-0.625000X0.400000X-0.625000X0*%
%ADD27RoundRect,0.249999X1.425001X-0.450001X1.425001X0.450001X-1.425001X0.450001X-1.425001X-0.450001X0*%
%ADD28RoundRect,0.225000X-0.375000X0.225000X-0.375000X-0.225000X0.375000X-0.225000X0.375000X0.225000X0*%
%ADD29RoundRect,0.250000X-0.312500X-0.625000X0.312500X-0.625000X0.312500X0.625000X-0.312500X0.625000X0*%
%ADD30RoundRect,0.375000X0.375000X-0.625000X0.375000X0.625000X-0.375000X0.625000X-0.375000X-0.625000X0*%
%ADD31RoundRect,0.500000X1.400000X-0.500000X1.400000X0.500000X-1.400000X0.500000X-1.400000X-0.500000X0*%
%ADD32RoundRect,0.225000X0.225000X0.375000X-0.225000X0.375000X-0.225000X-0.375000X0.225000X-0.375000X0*%
%ADD33RoundRect,0.250000X-0.625000X0.312500X-0.625000X-0.312500X0.625000X-0.312500X0.625000X0.312500X0*%
%ADD34RoundRect,0.175000X-0.325000X0.175000X-0.325000X-0.175000X0.325000X-0.175000X0.325000X0.175000X0*%
%ADD35RoundRect,0.150000X-0.150000X0.200000X-0.150000X-0.200000X0.150000X-0.200000X0.150000X0.200000X0*%
%ADD36RoundRect,0.250000X-1.275000X-1.125000X1.275000X-1.125000X1.275000X1.125000X-1.275000X1.125000X0*%
%ADD37RoundRect,0.250000X-0.850000X-0.350000X0.850000X-0.350000X0.850000X0.350000X-0.850000X0.350000X0*%
%ADD38RoundRect,0.250000X-0.625000X0.400000X-0.625000X-0.400000X0.625000X-0.400000X0.625000X0.400000X0*%
%ADD39RoundRect,0.175000X0.325000X-0.175000X0.325000X0.175000X-0.325000X0.175000X-0.325000X-0.175000X0*%
%ADD40RoundRect,0.150000X0.150000X-0.200000X0.150000X0.200000X-0.150000X0.200000X-0.150000X-0.200000X0*%
%ADD41RoundRect,0.250000X-0.325000X-0.650000X0.325000X-0.650000X0.325000X0.650000X-0.325000X0.650000X0*%
%ADD42RoundRect,0.250000X0.650000X-0.325000X0.650000X0.325000X-0.650000X0.325000X-0.650000X-0.325000X0*%
G04 APERTURE END LIST*
D10*
X144653000Y-95046800D03*
D11*
X143653000Y-91796800D03*
D10*
X142653000Y-95046800D03*
X109744000Y-70127600D03*
D11*
X110744000Y-66877600D03*
D10*
X111744000Y-70127600D03*
X162993600Y-103597200D03*
D12*
X166243600Y-104597200D03*
D10*
X162993600Y-105597200D03*
D13*
X129230381Y-79019098D03*
X129230381Y-76094098D03*
X129230381Y-84099098D03*
X129230381Y-81174098D03*
D14*
X133731000Y-86233000D03*
X131906000Y-86233000D03*
D15*
X128778000Y-63166000D03*
X128778000Y-61341000D03*
D16*
X128651000Y-65405000D03*
X125726000Y-65405000D03*
X123825000Y-65405000D03*
X120900000Y-65405000D03*
X118872000Y-65405000D03*
X115947000Y-65405000D03*
D15*
X133604000Y-61872500D03*
X133604000Y-60047500D03*
D14*
X182673000Y-132917144D03*
X180848000Y-132917144D03*
D15*
X165100000Y-134667000D03*
X165100000Y-132842000D03*
X175133000Y-130857000D03*
X175133000Y-129032000D03*
X173228000Y-130857000D03*
X173228000Y-129032000D03*
D17*
X118491000Y-128143000D03*
X118491000Y-125043000D03*
X166116000Y-126492000D03*
X166116000Y-123392000D03*
X142240000Y-127431800D03*
X142240000Y-124331800D03*
D13*
X149783800Y-76250800D03*
X149783800Y-73325800D03*
D18*
X145322800Y-74118300D03*
X145322800Y-76018300D03*
X143322800Y-76018300D03*
D19*
X143322800Y-74318300D03*
D15*
X163703000Y-86233000D03*
X163703000Y-84408000D03*
X159131000Y-83312000D03*
X159131000Y-81487000D03*
X162814000Y-90805000D03*
X162814000Y-88980000D03*
X160528000Y-90805000D03*
X160528000Y-88980000D03*
X156972000Y-90805000D03*
X156972000Y-88980000D03*
X154686000Y-90805000D03*
X154686000Y-88980000D03*
D20*
X161072300Y-83996400D03*
X162022300Y-86996400D03*
X160122300Y-86996400D03*
X164470000Y-89892000D03*
X166370000Y-89892000D03*
X165420000Y-86892000D03*
X157866000Y-94869000D03*
X159766000Y-94869000D03*
X158816000Y-91869000D03*
X156210000Y-86969600D03*
X158110000Y-86969600D03*
X157160000Y-83969600D03*
D21*
X179705000Y-91945000D03*
X178435000Y-91945000D03*
X177165000Y-91945000D03*
X175895000Y-91945000D03*
X175895000Y-86995000D03*
X177165000Y-86995000D03*
X178435000Y-86995000D03*
X179705000Y-86995000D03*
D13*
X111125000Y-84840000D03*
X111125000Y-81915000D03*
X111125000Y-89920000D03*
X111125000Y-86995000D03*
D22*
X126648000Y-69732001D03*
X126648000Y-71002001D03*
X126648000Y-72272001D03*
X126648000Y-73542001D03*
X121698000Y-73542001D03*
X121698000Y-72272001D03*
X121698000Y-71002001D03*
X121698000Y-69732001D03*
D23*
X154305000Y-58420000D03*
X157405000Y-58420000D03*
D15*
X170815000Y-112475000D03*
D13*
X181610000Y-116840000D03*
X181610000Y-113915000D03*
D15*
X118110000Y-88900000D03*
X118110000Y-87075000D03*
D10*
X120725000Y-122190000D03*
D12*
X123975000Y-123190000D03*
D10*
X120725000Y-124190000D03*
D13*
X169545000Y-69215000D03*
X169545000Y-66290000D03*
X179705000Y-74295000D03*
X179705000Y-71370000D03*
D20*
X145100000Y-82375000D03*
X147000000Y-82375000D03*
X146050000Y-79375000D03*
D22*
X121415000Y-55880000D03*
X121415000Y-57150000D03*
X121415000Y-58420000D03*
X121415000Y-59690000D03*
X126365000Y-59690000D03*
X126365000Y-58420000D03*
X126365000Y-57150000D03*
X126365000Y-55880000D03*
D10*
X115840000Y-71449000D03*
D11*
X116840000Y-68199000D03*
D10*
X117840000Y-71449000D03*
D15*
X156845000Y-106045000D03*
X168910000Y-112475000D03*
X120015000Y-88900000D03*
X120015000Y-87075000D03*
X111125000Y-79930000D03*
X111125000Y-78105000D03*
X144145000Y-105965000D03*
X144145000Y-104140000D03*
D13*
X123825000Y-94615000D03*
X123825000Y-91690000D03*
D10*
X136040000Y-125095000D03*
D11*
X137040000Y-121845000D03*
D10*
X138040000Y-125095000D03*
D13*
X182245000Y-74295000D03*
X182245000Y-71370000D03*
D15*
X130683000Y-66167000D03*
X130683000Y-64342000D03*
D13*
X172085000Y-81280000D03*
X172085000Y-78355000D03*
X142240000Y-81280000D03*
X142240000Y-78355000D03*
D10*
X103648000Y-133985000D03*
D11*
X104648000Y-130735000D03*
D10*
X105648000Y-133985000D03*
D22*
X157480000Y-65405000D03*
X157480000Y-66675000D03*
X157480000Y-67945000D03*
X157480000Y-69215000D03*
X162430000Y-69215000D03*
X162430000Y-67945000D03*
X162430000Y-66675000D03*
X162430000Y-65405000D03*
X151410000Y-120650000D03*
X151410000Y-121920000D03*
X151410000Y-123190000D03*
X151410000Y-124460000D03*
X156360000Y-124460000D03*
X156360000Y-123190000D03*
X156360000Y-121920000D03*
X156360000Y-120650000D03*
D24*
X181047004Y-129800144D03*
X178097004Y-129800144D03*
D15*
X107315000Y-68500000D03*
X107315000Y-66675000D03*
D25*
X156394438Y-136139007D03*
X156394438Y-139089007D03*
D13*
X169545000Y-74295000D03*
X169545000Y-71370000D03*
D26*
X149375000Y-127635000D03*
X146275000Y-127635000D03*
D15*
X170815000Y-114300000D03*
D13*
X134620000Y-100330000D03*
X134620000Y-97405000D03*
D27*
X149225000Y-56265000D03*
X149225000Y-50165000D03*
D23*
X144930000Y-120015000D03*
X148030000Y-120015000D03*
D15*
X125730000Y-76835000D03*
X125730000Y-75010000D03*
D13*
X179705000Y-81280000D03*
X179705000Y-78355000D03*
D15*
X121920000Y-88900000D03*
X121920000Y-87075000D03*
D13*
X182245000Y-81280000D03*
X182245000Y-78355000D03*
D14*
X159617400Y-100584000D03*
D26*
X130960000Y-118110000D03*
X127860000Y-118110000D03*
D10*
X128055000Y-134060000D03*
D11*
X129055000Y-130810000D03*
D10*
X130055000Y-134060000D03*
D26*
X105765000Y-115570000D03*
X102665000Y-115570000D03*
D13*
X172085000Y-74295000D03*
X172085000Y-71370000D03*
D20*
X125095000Y-83820000D03*
X126995000Y-83820000D03*
X126045000Y-80820000D03*
D13*
X169545000Y-81280000D03*
X169545000Y-78355000D03*
D15*
X107315000Y-79930000D03*
X107315000Y-78105000D03*
D17*
X162635000Y-116840000D03*
X162635000Y-113740000D03*
D13*
X177165000Y-81280000D03*
X177165000Y-78355000D03*
D23*
X128420000Y-127635000D03*
X131520000Y-127635000D03*
D15*
X123190000Y-80565000D03*
X123190000Y-78740000D03*
D25*
X139700000Y-134210000D03*
X139700000Y-137160000D03*
D15*
X120650000Y-80565000D03*
X120650000Y-78740000D03*
X142240000Y-102155000D03*
X142240000Y-100330000D03*
X117475000Y-76835000D03*
X117475000Y-75010000D03*
X109220000Y-62865000D03*
D24*
X127283000Y-67827001D03*
X124333000Y-67827001D03*
D10*
X144855000Y-122190000D03*
D12*
X148105000Y-123190000D03*
D10*
X144855000Y-124190000D03*
D16*
X155575000Y-112395000D03*
X152650000Y-112395000D03*
D15*
X116205000Y-88900000D03*
X116205000Y-87075000D03*
D24*
X111200000Y-115570000D03*
X108250000Y-115570000D03*
D15*
X111125000Y-62865000D03*
D28*
X121435000Y-130810000D03*
X121435000Y-134110000D03*
D15*
X121285000Y-76835000D03*
X121285000Y-75010000D03*
D29*
X126365000Y-100965000D03*
X129290000Y-100965000D03*
D10*
X152185000Y-134060000D03*
D11*
X153185000Y-130810000D03*
D10*
X154185000Y-134060000D03*
D13*
X172085000Y-94615000D03*
X172085000Y-91690000D03*
X134620000Y-105410000D03*
X134620000Y-102485000D03*
D24*
X176940000Y-113925144D03*
X173990000Y-113925144D03*
D13*
X181610000Y-111760000D03*
X181610000Y-108835000D03*
D15*
X123825000Y-76835000D03*
X123825000Y-75010000D03*
X168910000Y-114300000D03*
X97790000Y-76120000D03*
X97790000Y-74295000D03*
D30*
X111365000Y-107900000D03*
X113665000Y-107900000D03*
D31*
X113665000Y-101600000D03*
D30*
X115965000Y-107900000D03*
D13*
X167005000Y-74295000D03*
X167005000Y-71370000D03*
D15*
X111125000Y-59055000D03*
D32*
X110690000Y-136525000D03*
X107390000Y-136525000D03*
D15*
X116078000Y-63166000D03*
X116078000Y-61341000D03*
D27*
X153670000Y-56265000D03*
X153670000Y-50165000D03*
D13*
X167005000Y-69215000D03*
X167005000Y-66290000D03*
D15*
X121285000Y-102235000D03*
X121285000Y-100410000D03*
D22*
X100079000Y-66421000D03*
X100079000Y-67691000D03*
X100079000Y-68961000D03*
X100079000Y-70231000D03*
X100079000Y-71501000D03*
X100079000Y-72771000D03*
X100079000Y-74041000D03*
X100079000Y-75311000D03*
X105029000Y-75311000D03*
X105029000Y-74041000D03*
X105029000Y-72771000D03*
X105029000Y-71501000D03*
X105029000Y-70231000D03*
X105029000Y-68961000D03*
X105029000Y-67691000D03*
X105029000Y-66421000D03*
D16*
X155575000Y-108585000D03*
X152650000Y-108585000D03*
D13*
X152400000Y-76200000D03*
X152400000Y-73275000D03*
X120650000Y-107315000D03*
X120650000Y-104390000D03*
D10*
X181077004Y-123375144D03*
D11*
X180077004Y-126625144D03*
D10*
X179077004Y-123375144D03*
D19*
X165036500Y-58688500D03*
D18*
X165036500Y-60388500D03*
X167036500Y-60388500D03*
X167036500Y-58488500D03*
D17*
X138505000Y-116840000D03*
X138505000Y-113740000D03*
D25*
X158825000Y-113890000D03*
X158825000Y-116840000D03*
D23*
X173430000Y-110439200D03*
X176530000Y-110439200D03*
X160245000Y-127635000D03*
X163345000Y-127635000D03*
D10*
X168842004Y-126625144D03*
D11*
X169842004Y-123375144D03*
D10*
X170842004Y-126625144D03*
D15*
X117983000Y-63166000D03*
X117983000Y-61341000D03*
X167005000Y-114300000D03*
D16*
X129097500Y-110490000D03*
X126172500Y-110490000D03*
D23*
X106120000Y-127381000D03*
X109220000Y-127381000D03*
D22*
X171822004Y-116465144D03*
X171822004Y-117735144D03*
X171822004Y-119005144D03*
X171822004Y-120275144D03*
X176772004Y-120275144D03*
X176772004Y-119005144D03*
X176772004Y-117735144D03*
X176772004Y-116465144D03*
D15*
X119380000Y-102235000D03*
X119380000Y-100410000D03*
X115443000Y-76835000D03*
X115443000Y-75010000D03*
X157480000Y-100410000D03*
X154940000Y-104220000D03*
D23*
X152550000Y-127635000D03*
X155650000Y-127635000D03*
D20*
X130495000Y-106910000D03*
X132395000Y-106910000D03*
X131445000Y-103910000D03*
D15*
X138988800Y-58420000D03*
X138988800Y-56595000D03*
X158750000Y-104220000D03*
D26*
X155090000Y-118110000D03*
X151990000Y-118110000D03*
D13*
X172085000Y-99695000D03*
X172085000Y-96770000D03*
D15*
X149860000Y-106600000D03*
X149860000Y-104775000D03*
X107315000Y-72310000D03*
X107315000Y-70485000D03*
D28*
X156360000Y-130810000D03*
X156360000Y-134110000D03*
D15*
X107315000Y-76120000D03*
X107315000Y-74295000D03*
X97790000Y-72310000D03*
X97790000Y-70485000D03*
X144145000Y-102155000D03*
X144145000Y-100330000D03*
D25*
X116280000Y-136060000D03*
X116280000Y-139010000D03*
D33*
X127635000Y-103947500D03*
X127635000Y-106872500D03*
D15*
X135255000Y-61872500D03*
X135255000Y-60047500D03*
D13*
X154940000Y-76200000D03*
X154940000Y-73275000D03*
X162504381Y-95656098D03*
X162504381Y-92731098D03*
X149860000Y-81280000D03*
X149860000Y-78355000D03*
D15*
X173355000Y-85645000D03*
X173355000Y-83820000D03*
D10*
X173997004Y-126700144D03*
D11*
X174997004Y-123450144D03*
D10*
X175997004Y-126700144D03*
D15*
X111125000Y-76120000D03*
X111125000Y-74295000D03*
D16*
X169545000Y-63500000D03*
X166620000Y-63500000D03*
D15*
X153670000Y-86280000D03*
X153670000Y-84455000D03*
D28*
X97663000Y-130987800D03*
X97663000Y-134287800D03*
D10*
X147740000Y-134060000D03*
D11*
X148740000Y-130810000D03*
D10*
X149740000Y-134060000D03*
D15*
X115570000Y-80565000D03*
X115570000Y-78740000D03*
D23*
X97940000Y-119380000D03*
X101040000Y-119380000D03*
D17*
X115645000Y-134155000D03*
X115645000Y-131055000D03*
D20*
X122875000Y-106910000D03*
X124775000Y-106910000D03*
X123825000Y-103910000D03*
D24*
X114075000Y-111125000D03*
X111125000Y-111125000D03*
D10*
X99711000Y-133985000D03*
D11*
X100711000Y-130735000D03*
D10*
X101711000Y-133985000D03*
D26*
X116840000Y-115570000D03*
X113740000Y-115570000D03*
D16*
X134177500Y-110490000D03*
X131252500Y-110490000D03*
D28*
X132230000Y-130810000D03*
X132230000Y-134110000D03*
D22*
X127280000Y-120650000D03*
X127280000Y-121920000D03*
X127280000Y-123190000D03*
X127280000Y-124460000D03*
X132230000Y-124460000D03*
X132230000Y-123190000D03*
X132230000Y-121920000D03*
X132230000Y-120650000D03*
D26*
X107950000Y-118745000D03*
X104850000Y-118745000D03*
D20*
X132893500Y-56338600D03*
X134793500Y-56338600D03*
X133843500Y-53338600D03*
D10*
X152922500Y-68655000D03*
D11*
X153922500Y-65405000D03*
D10*
X154922500Y-68655000D03*
D25*
X108585000Y-105410000D03*
X108585000Y-108360000D03*
D15*
X154940000Y-106045000D03*
X149860000Y-86915000D03*
X149860000Y-85090000D03*
D16*
X133832600Y-68580000D03*
X130907600Y-68580000D03*
D21*
X179936822Y-98855000D03*
X178666822Y-98855000D03*
X177396822Y-98855000D03*
X176126822Y-98855000D03*
X176126822Y-103805000D03*
X177396822Y-103805000D03*
X178666822Y-103805000D03*
X179936822Y-103805000D03*
D34*
X133531000Y-80804000D03*
D35*
X131831000Y-80804000D03*
X131831000Y-82804000D03*
X133731000Y-82804000D03*
D25*
X146125000Y-113740000D03*
X146125000Y-116690000D03*
D28*
X145565000Y-130810000D03*
X145565000Y-134110000D03*
D26*
X125245000Y-127635000D03*
X122145000Y-127635000D03*
D15*
X142240000Y-86915000D03*
X142240000Y-85090000D03*
D25*
X119455000Y-136060000D03*
X119455000Y-139010000D03*
D17*
X136040000Y-133350000D03*
X136040000Y-130250000D03*
D15*
X119888000Y-63166000D03*
X119888000Y-61341000D03*
D13*
X154884381Y-95656098D03*
X154884381Y-92731098D03*
D15*
X137007600Y-58394600D03*
X137007600Y-56569600D03*
X146050000Y-86915000D03*
X146050000Y-85090000D03*
X97790000Y-68500000D03*
X97790000Y-66675000D03*
D25*
X160204438Y-136139007D03*
X160204438Y-139089007D03*
D10*
X160170000Y-125095000D03*
D11*
X161170000Y-121845000D03*
D10*
X162170000Y-125095000D03*
D15*
X109220000Y-76120000D03*
X109220000Y-74295000D03*
D22*
X103880000Y-120650000D03*
X103880000Y-121920000D03*
X103880000Y-123190000D03*
X103880000Y-124460000D03*
X108830000Y-124460000D03*
X108830000Y-123190000D03*
X108830000Y-121920000D03*
X108830000Y-120650000D03*
D10*
X112105000Y-125170000D03*
D11*
X113105000Y-121920000D03*
D10*
X114105000Y-125170000D03*
D16*
X144780000Y-108585000D03*
X141855000Y-108585000D03*
D15*
X147955000Y-86915000D03*
X147955000Y-85090000D03*
D14*
X130399800Y-86233000D03*
X128574800Y-86233000D03*
D15*
X151765000Y-106600000D03*
X151765000Y-104775000D03*
X151765000Y-86915000D03*
X151765000Y-85090000D03*
D20*
X146055000Y-106680000D03*
X147955000Y-106680000D03*
X147005000Y-103680000D03*
D23*
X112545000Y-127635000D03*
X115645000Y-127635000D03*
D15*
X105410000Y-79930000D03*
X105410000Y-78105000D03*
D13*
X156210000Y-81280000D03*
X156210000Y-78355000D03*
D10*
X116745000Y-59055000D03*
D11*
X117745000Y-55805000D03*
D10*
X118745000Y-59055000D03*
D20*
X152085000Y-82375000D03*
X153985000Y-82375000D03*
X153035000Y-79375000D03*
D17*
X125170000Y-116840000D03*
X125170000Y-113740000D03*
D16*
X160655000Y-108585000D03*
X157730000Y-108585000D03*
D15*
X167005000Y-112475000D03*
D36*
X116223600Y-93721300D03*
X116223600Y-96771300D03*
X119573600Y-93721300D03*
X119573600Y-96771300D03*
D37*
X111598600Y-92966300D03*
X111598600Y-95246300D03*
X111598600Y-97526300D03*
D13*
X123825000Y-99695000D03*
X123825000Y-96770000D03*
D38*
X160655000Y-50165000D03*
X160655000Y-53265000D03*
D16*
X161798000Y-98298000D03*
X158873000Y-98298000D03*
D15*
X111125000Y-60880000D03*
D23*
X174700000Y-53975000D03*
X177800000Y-53975000D03*
D15*
X156845000Y-104220000D03*
X149860000Y-102790000D03*
X149860000Y-100965000D03*
X158750000Y-106045000D03*
D13*
X108585000Y-94619000D03*
X108585000Y-91694000D03*
X160020000Y-76200000D03*
X160020000Y-73275000D03*
X174625000Y-74295000D03*
X174625000Y-71370000D03*
D14*
X161442400Y-100584000D03*
D10*
X123610000Y-134060000D03*
D11*
X124610000Y-130810000D03*
D10*
X125610000Y-134060000D03*
D39*
X137481590Y-53319419D03*
D40*
X139181590Y-53319419D03*
X139181590Y-51319419D03*
X137281590Y-51319419D03*
D15*
X109220000Y-79930000D03*
X109220000Y-78105000D03*
X157480000Y-102235000D03*
D24*
X127000000Y-53975000D03*
X124050000Y-53975000D03*
D15*
X121793000Y-63166000D03*
X121793000Y-61341000D03*
X144145000Y-86915000D03*
X144145000Y-85090000D03*
D13*
X179070000Y-111760000D03*
X179070000Y-108835000D03*
X177165000Y-74295000D03*
X177165000Y-71370000D03*
D41*
X180135000Y-53975000D03*
X183085000Y-53975000D03*
D23*
X120800000Y-120015000D03*
X123900000Y-120015000D03*
D16*
X165735000Y-108585000D03*
X162810000Y-108585000D03*
D42*
X157480000Y-56085000D03*
X157480000Y-53135000D03*
D20*
X117160000Y-83820000D03*
X119060000Y-83820000D03*
X118110000Y-80820000D03*
D15*
X142240000Y-105965000D03*
X142240000Y-104140000D03*
D24*
X163195000Y-63500000D03*
X160245000Y-63500000D03*
D13*
X167005000Y-81280000D03*
X167005000Y-78355000D03*
D42*
X182372000Y-91215000D03*
X182372000Y-88265000D03*
D23*
X136115000Y-127635000D03*
X139215000Y-127635000D03*
D17*
X149300000Y-116840000D03*
X149300000Y-113740000D03*
D25*
X134695000Y-113890000D03*
X134695000Y-116840000D03*
D13*
X174625000Y-81280000D03*
X174625000Y-78355000D03*
D15*
X121920000Y-84375000D03*
X121920000Y-82550000D03*
D16*
X156921200Y-98298000D03*
X153996200Y-98298000D03*
D17*
X160170000Y-133350000D03*
X160170000Y-130250000D03*
D42*
X182251822Y-102948000D03*
X182251822Y-99998000D03*
D26*
X101269800Y-127381000D03*
X98169800Y-127381000D03*
D13*
X157480000Y-76200000D03*
X157480000Y-73275000D03*
D25*
X121995000Y-113740000D03*
X121995000Y-116690000D03*
D24*
X145190000Y-62230000D03*
X142240000Y-62230000D03*
D10*
X97865000Y-122460000D03*
D12*
X101115000Y-123460000D03*
D10*
X97865000Y-124460000D03*
D16*
X124017500Y-110490000D03*
X121092500Y-110490000D03*
D15*
X171450000Y-85645000D03*
X171450000Y-83820000D03*
D16*
X170815000Y-108585000D03*
X167890000Y-108585000D03*
D24*
X100405000Y-115570000D03*
X97455000Y-115570000D03*
D25*
X142240000Y-130175000D03*
X142240000Y-133125000D03*
D13*
X165044381Y-95656098D03*
X165044381Y-92731098D03*
X167584381Y-95656098D03*
X167584381Y-92731098D03*
M02*
