%TF.GenerationSoftware,KiCad,Pcbnew,9.0.1*%
%TF.CreationDate,2025-09-16T21:50:05+03:00*%
%TF.ProjectId,v1,76312e6b-6963-4616-945f-706362585858,rev?*%
%TF.SameCoordinates,Original*%
%TF.FileFunction,Plated,1,2,PTH,Drill*%
%TF.FilePolarity,Positive*%
%FSLAX46Y46*%
G04 Gerber Fmt 4.6, Leading zero omitted, Abs format (unit mm)*
G04 Created by KiCad (PCBNEW 9.0.1) date 2025-09-16 21:50:05*
%MOMM*%
%LPD*%
G01*
G04 APERTURE LIST*
%TA.AperFunction,ViaDrill*%
%ADD10C,0.300000*%
%TD*%
%TA.AperFunction,ViaDrill*%
%ADD11C,0.600000*%
%TD*%
%TA.AperFunction,ComponentDrill*%
%ADD12C,0.600000*%
%TD*%
%TA.AperFunction,ComponentDrill*%
%ADD13C,0.800000*%
%TD*%
%TA.AperFunction,ViaDrill*%
%ADD14C,1.500000*%
%TD*%
G04 APERTURE END LIST*
D10*
X105410000Y-97155000D03*
X105410000Y-99695000D03*
X134875000Y-65405000D03*
X137160000Y-65405000D03*
X137160000Y-69850000D03*
X139700000Y-65405000D03*
X139700000Y-69850000D03*
X142240000Y-65405000D03*
X144780000Y-65405000D03*
X144780000Y-69850000D03*
X147320000Y-69850000D03*
X149860000Y-65405000D03*
X149860000Y-69850000D03*
D11*
X96189800Y-139827000D03*
X100736400Y-139903200D03*
X106300000Y-143500000D03*
X111300000Y-143500000D03*
X116300000Y-143500000D03*
X121300000Y-143500000D03*
X126300000Y-143500000D03*
X131200000Y-143500000D03*
X136300000Y-143500000D03*
X143100000Y-143500000D03*
X148100000Y-143500000D03*
X153100000Y-143500000D03*
X158000000Y-143500000D03*
X163100000Y-143500000D03*
X168100000Y-143500000D03*
X173100000Y-143500000D03*
X183100000Y-139300000D03*
D12*
%TO.C,BZ1*%
X98435000Y-58420000D03*
X106035000Y-58420000D03*
%TO.C,K1*%
X106680000Y-40429337D03*
X106680000Y-48049337D03*
X116840000Y-40429337D03*
X116840000Y-48049337D03*
X119380000Y-40429337D03*
X119380000Y-48049337D03*
D13*
%TO.C,J17*%
X99177500Y-86360000D03*
X99177500Y-88900000D03*
X99177500Y-91440000D03*
X99177500Y-93980000D03*
X99177500Y-96520000D03*
X99177500Y-99060000D03*
X99177500Y-101600000D03*
X99177500Y-104140000D03*
X99177500Y-106680000D03*
X99177500Y-109220000D03*
X101717500Y-86360000D03*
X101717500Y-88900000D03*
X101717500Y-91440000D03*
X101717500Y-93980000D03*
X101717500Y-96520000D03*
X101717500Y-99060000D03*
X101717500Y-101600000D03*
X101717500Y-104140000D03*
X101717500Y-106680000D03*
X101717500Y-109220000D03*
%TD*%
D14*
X175693596Y-62358338D03*
X178193596Y-59858338D03*
X178193596Y-64858338D03*
M02*
