M48
; DRILL file {KiCad 9.0.1} date 2025-09-16T21:48:16+0300
; FORMAT={-:-/ absolute / metric / decimal}
; #@! TF.CreationDate,2025-09-16T21:48:16+03:00
; #@! TF.GenerationSoftware,Kicad,Pcbnew,9.0.1
; #@! TF.FileFunction,Plated,1,2,PTH
FMAT,2
METRIC
; #@! TA.AperFunction,Plated,PTH,ViaDrill
T1C0.300
; #@! TA.AperFunction,Plated,PTH,ViaDrill
T2C0.600
; #@! TA.AperFunction,Plated,PTH,ComponentDrill
T3C0.600
; #@! TA.AperFunction,Plated,PTH,ComponentDrill
T4C0.800
; #@! TA.AperFunction,Plated,PTH,ViaDrill
T5C1.500
%
G90
G05
T1
X105.41Y-97.155
X105.41Y-99.695
X134.875Y-65.405
X137.16Y-65.405
X137.16Y-69.85
X139.7Y-65.405
X139.7Y-69.85
X142.24Y-65.405
X144.78Y-65.405
X144.78Y-69.85
X147.32Y-69.85
X149.86Y-65.405
X149.86Y-69.85
T2
X96.19Y-139.827
X100.736Y-139.903
X106.3Y-143.5
X111.3Y-143.5
X116.3Y-143.5
X121.3Y-143.5
X126.3Y-143.5
X131.2Y-143.5
X136.3Y-143.5
X143.1Y-143.5
X148.1Y-143.5
X153.1Y-143.5
X158.0Y-143.5
X163.1Y-143.5
X168.1Y-143.5
X173.1Y-143.5
X183.1Y-139.3
T3
X98.435Y-58.42
X106.035Y-58.42
X106.68Y-40.429
X106.68Y-48.049
X116.84Y-40.429
X116.84Y-48.049
X119.38Y-40.429
X119.38Y-48.049
T4
X99.177Y-86.36
X99.177Y-88.9
X99.177Y-91.44
X99.177Y-93.98
X99.177Y-96.52
X99.177Y-99.06
X99.177Y-101.6
X99.177Y-104.14
X99.177Y-106.68
X99.177Y-109.22
X101.718Y-86.36
X101.718Y-88.9
X101.718Y-91.44
X101.718Y-93.98
X101.718Y-96.52
X101.718Y-99.06
X101.718Y-101.6
X101.718Y-104.14
X101.718Y-106.68
X101.718Y-109.22
T5
X175.694Y-62.358
X178.194Y-59.858
X178.194Y-64.858
M30
